<?xml version="1.0" standalone="no"?>
<!DOCTYPE svg PUBLIC "-//W3C//DTD SVG 1.1//EN" "http://www.w3.org/Graphics/SVG/1.1/DTD/svg11.dtd" >
<!--
2013-9-30: Created.
-->
<svg>
<metadata>
Created by iconfont
</metadata>
<defs>

<font id="iconfont" horiz-adv-x="1024" >
  <font-face
    font-family="iconfont"
    font-weight="500"
    font-stretch="normal"
    units-per-em="1024"
    ascent="896"
    descent="-128"
  />
    <missing-glyph />
    
    <glyph glyph-name="x" unicode="x" horiz-adv-x="1001"
d="M281 543q-27 -1 -53 -1h-83q-18 0 -36.5 -6t-32.5 -18.5t-23 -32t-9 -45.5v-76h912v41q0 16 -0.5 30t-0.5 18q0 13 -5 29t-17 29.5t-31.5 22.5t-49.5 9h-133v-97h-438v97zM955 310v-52q0 -23 0.5 -52t0.5 -58t-10.5 -47.5t-26 -30t-33 -16t-31.5 -4.5q-14 -1 -29.5 -0.5
t-29.5 0.5h-32l-45 128h-439l-44 -128h-29h-34q-20 0 -45 1q-25 0 -41 9.5t-25.5 23t-13.5 29.5t-4 30v167h911zM163 247q-12 0 -21 -8.5t-9 -21.5t9 -21.5t21 -8.5q13 0 22 8.5t9 21.5t-9 21.5t-22 8.5zM316 123q-8 -26 -14 -48q-5 -19 -10.5 -37t-7.5 -25t-3 -15t1 -14.5
t9.5 -10.5t21.5 -4h37h67h81h80h64h36q23 0 34 12t2 38q-5 13 -9.5 30.5t-9.5 34.5q-5 19 -11 39h-368zM336 498v228q0 11 2.5 23t10 21.5t20.5 15.5t34 6h188q31 0 51.5 -14.5t20.5 -52.5v-227h-327z" />
    

    
    <glyph glyph-name="not_selected" unicode="&#58958;" d="M512.255-125.87c-281.15 0-509.87 228.684-509.87 509.834s228.721 509.87 509.87 509.87c281.15 0 509.834-228.721 509.834-509.87s-228.684-509.834-509.834-509.834zM512.255 821.015c-240.991 0-437.053-196.062-437.053-437.053 0-240.954 196.062-437.015 437.053-437.015 240.991 0 437.015 196.062 437.015 437.015 0.036 240.991-196.026 437.053-437.015 437.053z"  horiz-adv-x="1024" />

    
    <glyph glyph-name="mima1" unicode="&#58910;" d="M510.1568043613109 317.8364632884152c-36.55052834130315 0-66.16934075714953-29.618812415846357-66.16934075714953-66.16934075714953 0-19.601947393302925 8.518397023503343-37.19936097298421 22.056834082274275-49.31709766453259l0-60.961267567006765c0-24.3689539541461 19.74587456580848-44.114828519954585 44.1136670302813-44.114828519954585 24.361989553175306 0 44.114828519954585 19.74587456580848 44.114828519954585 44.114828519954585l0 60.961267567006765c13.53843592450367 12.116575201875062 22.056834082274275 29.715150271229657 22.056834082274275 49.31709766453259C576.3273054738665 288.2176508725688 546.70849305802 317.8364632884152 510.1568043613109 317.8364632884152L510.1568043613109 317.8364632884152 510.1568043613109 317.8364632884152zM818.9524758418145 516.3351993138135l-44.1136670302813 0 0 110.27836523153935c0 146.18934605294436-118.49381875268394 264.67504004925144-264.68316593989556 264.67504004925144-146.193989743103 0-264.68780849578695-118.48569399630709-264.68780849578695-264.67504004925144l0-110.27836523153935-44.11250667487525 0c-60.913678249884505 0-110.28416814283685-49.37048989295233-110.28416814283685-110.27836523153935l0-419.07403784631003c0-60.90091093761623 49.37048989295233-110.27140083056855 110.28416814283685-110.27140083056855l617.5971481408388 0c60.89510689205147 0 110.28416814283685 49.364686981654856 110.28416814283685 110.27140083056855L929.2366451189183 406.05799443768035C929.2366451189183 466.97051233215876 879.8475838681331 516.3351993138135 818.9524758418145 516.3351993138135L818.9524758418145 516.3351993138135 818.9524758418145 516.3351993138135zM510.1568043613109 847.1760979197292c121.8099466316093 0 220.56833741994097-98.7537482324402 220.56833741994097-220.55557010767265l0-110.28416814283685L289.6128412105005 516.3363596692196l0 110.28416814283685-0.029017959289224682 0C289.58382438547835 748.4211893318829 388.34917844051375 847.1760979197292 510.1568043613109 847.1760979197292L510.1568043613109 847.1760979197292 510.1568043613109 847.1760979197292zM885.124138444043-13.01023936306467c0-36.55052834130315-29.618812415846357-66.16353671158475-66.1716614679616-66.16353671158475L201.35648919064863-79.17377607464982c-36.55285018638251 0-66.1716614679616 29.613008370281612-66.1716614679616 66.16353671158475L135.1848277226871 406.05799443768035c0 36.55285018638251 29.618812415846357 66.1716614679616 66.1716614679616 66.1716614679616l617.5971481408388 0c36.55285018638251 0 66.1716614679616-29.618812415846357 66.1716614679616-66.1716614679616L885.1252987994494-13.01023936306467 885.124138444043-13.01023936306467 885.124138444043-13.01023936306467zM885.124138444043-13.01023936306467"  horiz-adv-x="1024" />

    
    <glyph glyph-name="dizhi" unicode="&#58893;" d="M512.0029014556487 274.81617771959986c-120.19192686346142 0-217.9393452437687 97.74393617982194-217.9393452437687 217.93006013198584 0 120.19192686346142 97.74625802490128 217.9393452437687 217.9393452437687 217.9393452437687 120.18728430756998 0 217.93238197706526-97.74741838030734 217.93238197706526-217.9393452437687C729.9352834327142 372.5589535440158 632.1901857632188 274.81617771959986 512.0029014556487 274.81617771959986L512.0029014556487 274.81617771959986zM512.0029014556487 638.0395218439894c-80.13259379819908 0-145.29444434780967-65.1618505496106-145.29444434780967-145.29444434780967 0-80.12562939722827 65.1618505496106-145.2874799468389 145.29444434780967-145.2874799468389 80.12562939722827 0 145.2874799468389 65.1618505496106 145.2874799468389 145.2874799468389C657.2903825367549 572.8776712943788 592.1285319871442 638.0395218439894 512.0029014556487 638.0395218439894L512.0029014556487 638.0395218439894zM512.0029014556487-124.73832178684916c-9.012857015489915 0-18.05821305648719 3.3416636377291766-25.06305405787007 10.026150134326317-14.493694259028882 13.872719231230993-15.042706834841242 36.86856100100953-1.2036492530581733 51.36109490463238 98.21750296889614 102.97174108320377 353.16817603077385 403.6157990067059 353.16817603077385 556.0973145994759 0 180.2339173219358-146.63621672780866 326.90727789967775-326.9026342095191 326.90727789967775-180.2339173219358 0-326.90727789967775-146.67219908806868-326.90727789967775-326.90727789967775 0-85.82932293476362 82.34257176912284-233.91409763367798 231.84920719066588-417.05557523074697 12.71433745021573-15.584755009682812 10.387128420996262-38.46452721083897-5.15932351761444-51.105740719395875-15.546451938610701-12.67603437914362-38.46452721083897-10.384807710184166-51.10690107480193 5.160483873020486C195.95748025571487 231.47901984648422 112.45072379427921 387.26970005147643 112.45072379427921 492.74507636191254c0 220.2990544327629 179.25196287320065 399.5510173059635 399.5510173059635 399.5510173059635 220.29441187687138 0 399.5463747500721-179.25312436287396 399.5463747500721-399.5510173059635 0-212.66511251293795-358.0338422920798-590.2765279291903-373.2541368146073-606.222261225543C531.1394079505217-120.95907372030558 521.5903056714876-124.73832178684916 512.0029014556487-124.73832178684916L512.0029014556487-124.73832178684916zM512.0029014556487-124.73832178684916"  horiz-adv-x="1024" />

    
    <glyph glyph-name="shouji2" unicode="&#58918;" d="M787.2-212 236.8-212C179.2-212 128-160.8 128-103.2L128 703.2C128 760.8 179.2 812 236.8 812l550.4 0C844.8 812 896 760.8 896 703.2l0-806.4C896-160.8 844.8-212 787.2-212zM236.8 767.2c-32 0-64-25.6-64-64l0-806.4c0-32 25.6-64 64-64l550.4 0c32 0 64 25.6 64 64L851.2 703.2c0 32-25.6 64-64 64L236.8 767.2zM512-64.8c-57.6 0-108.8 51.2-108.8 108.8s51.2 108.8 108.8 108.8c57.6 0 108.8-51.2 108.8-108.8S569.6-64.8 512-64.8zM512 108c-32 0-64-25.6-64-64s25.6-64 64-64c32 0 64 25.6 64 64S544 108 512 108zM384 620l256 0 0-44.8-256 0 0 44.8Z"  horiz-adv-x="1024" />

    
    <glyph glyph-name="my-jifen" unicode="&#58896;" d="M513.8643248099775 396.34171283526234c288.3952269509446 0 505.8600880984992 93.14203123263606 505.8600880984992 216.66413271195464 0 123.50867507240427-217.46486114755442 216.65070630504027-505.8600880984992 216.65070630504027S7.990809111741801 736.5132991696673 7.990809111741801 613.0046252900853C7.990809111741801 489.4825238107667 225.46909785903276 396.34171283526234 513.8643248099775 396.34171283526234zM513.8643248099775 774.9824348566101c265.89061273409135 0 451.18719135998356-85.36056362967379 451.18719135998356-161.97780956652474S779.7561578012004 451.0146095737778 513.8643248099775 451.0146095737778c-265.90403914100574 0-451.2006189597201 85.37399003658813-451.2006189597201 161.99001571630743S247.96028566897175 774.9824348566101 513.8643248099775 774.9824348566101zM513.8545591744579 166.832971054224c287.60792611508145 0 504.4893290088617 92.56101468594743 504.4893290088617 215.28360917962004 0 32.408744745921844-15.659364147054664 62.567881653739356-43.22956153711489 89.6180944388468-0.17698976826056254 0.1830934395630332-0.3173622799951831 0.3820549931258256-0.4992342696043899 0.5590447613863881-0.2038437749114366 0.19896155356279238-0.3405531296067983 0.4125697711715174-0.5443980973404555 0.6090908104710979l-0.13670935469536172-0.150136954431909c-4.434520577433557 4.064672926912673-10.230035801807142 6.690230894018127-16.72008488513087 6.690230894018127-13.768620452464551 0-24.92877011613279-11.16015085649046-24.92877011613279-24.92877011613279 0-7.288335811838109 3.2468549273592733-13.695383553768226 8.231877273435757-18.253187078982823l-0.09887064821559323-0.10863509091288169c16.63830380086886-16.728629070696556 26.015124603728275-37.16184786048219 26.015124603728275-54.035731664262 0-77.27760186071613-185.85806509436404-163.37664291994454-452.5799222349232-163.37664291994454-266.70964979795417 0-452.56893634227197 86.0990398664062-452.56893634227197 163.37664291994454 0 19.2516556181916 5.412239974116154 35.72761631484584 26.627877378416407 54.47637689203822 0.25511008112775235 0.24412418847663747 0.5126618693409372 0.4552918918221507 0.7580063149491804 0.709181715818297 0.16356336134623575 0.14159276886622643 0.28684630912727066 0.2783021235615881 0.4516299276051124 0.4223354066910264l-0.10131116247880508 0.09642894113016086c4.075657626741567 4.436962284518989 6.707320457971714 10.244683658675296 6.707320457971714 16.74449718469631 0 13.768620452464551-11.16015085649046 24.92877011613279-24.92877011613279 24.92877011613279-6.883089969100671 0-13.113145557125783-2.791563035537123-17.62212567603171-7.299321704489226l-0.14647499021487065 0.14159276886622643c-27.92173641231814-27.193024618283047-43.650676686674316-57.586522464702135-43.650676686674316-90.21986132088382C9.379878022464101 259.3952059973028 226.260060659113 166.832971054224 513.8545591744579 166.832971054224zM974.8726441648138 243.8078584918129c-0.20140326064822472 0.19651984647736-0.33689235821198055 0.4089089997766997-0.5407361331234172 0.6054288462540596l-0.13670935469536172-0.1489155044780825c-4.434520577433557 4.064672926912673-10.231257251760969 6.690230894018127-16.7213063350847 6.690230894018127-13.766178745379118 0-24.927549859001193-11.16015085649046-24.927549859001193-24.92877011613279 0-7.288335811838109 3.2456346702276675-13.696603810899832 8.231877273435757-18.253187078982823l-0.10009090534719914-0.10863509091288169c16.639524058000475-16.728629070696556 26.016344860859874-37.16184786048219 26.016344860859874-54.035731664262 0-77.28004356780154-185.85806509436404-163.37664291994454-452.5799222349232-163.37664291994454-266.70964979795417 0-452.56893634227197 86.09781960927458-452.56893634227197 163.37664291994454 0 19.2516556181916 5.412239974116154 35.72761631484584 26.62543567133098 54.47637689203822 0.25511008112775235 0.24168367421342563 0.5126618693409372 0.4552918918221507 0.7580063149491804 0.709181715818297 0.16356336134623575 0.14159276886622643 0.28684630912727066 0.2783021235615881 0.4516299276051124 0.4223354066910264l-0.10131116247880508 0.09642894113016086c4.075657626741567 4.436962284518989 6.707320457971714 10.244683658675296 6.707320457971714 16.74449718469631 0 13.768620452464551-11.16015085649046 24.92877011613279-24.927549859001193 24.92877011613279-6.883089969100671 0-13.113145557125783-2.791563035537123-17.62212567603171-7.299321704489226l-0.14647499021487065 0.14159276886622643c-27.924178119403575-27.193024618283047-43.650676686674316-57.587742721833735-43.650676686674316-90.21986132088382 0-122.72259330085039 216.8801826366488-215.28360917962004 504.47590260194744-215.28360917962004 287.6067046651276 0 504.48688849459853 92.56101468594743 504.48688849459853 215.28360917962004 0 32.405082781704806-15.65692363279145 62.56666139660776-43.222237608680814 89.61321221749816C975.1997708875061 243.42946546290432 975.0557376043768 243.62720675933554 974.8726441648138 243.8078584918129z"  horiz-adv-x="1024" />

    
    <glyph glyph-name="duihao" unicode="&#58974;" d="M270.679839 68.470697 1.732457 342.095611 109.312638 451.490114 378.25695 177.868269 270.679839 68.470697 270.679839 68.470697ZM378.26309-41.053766 270.684956 68.470697 916.28065 725.244988 1023.858784 615.719502 378.26309-41.053766 378.26309-41.053766Z"  horiz-adv-x="1024" />

    
    <glyph glyph-name="iconfontright" unicode="&#58950;" d="M926.8931048518265 412.2718726447766M268.8369422278221-108.22575946496215c-14.213896784111464 14.213896784111464-15.050008359647427 36.20726648842716-2.3265713406218254 49.73046240579151l427.6892472252464 427.7255999024436c18.358101984594086 17.412932377466472 18.285396630199653 21.957017027118468 0 40.24241365731813L266.51037088720034 837.1256110486402C253.75058119097747 850.6488069660045 254.62304544371062 872.6421766703202 268.8369422278221 886.8560734544318c14.468365524491976 14.468365524491976 37.04337806396312 15.268124422830722 50.493868626933036 1.8539865370580164l475.0567856132189-475.0567856132189c5.852781028751778-5.852781028751778 8.470173786951333-13.450490562969923 8.942758590515139-21.339021514765804l0-5.961839060343426c-0.5089374807610241-7.888530951795874-3.126330238960577-15.486240486014019-8.942758590515139-21.339021514765804L319.3308108547552-110.07974600202022C305.8803202917852-123.4575312105959 283.2689550751168-122.65777231225695 268.8369422278221-108.22575946496215z"  horiz-adv-x="1024" />

    
    <glyph glyph-name="yanzhengyanzhengma" unicode="&#58916;" d="M954.154 732.718c-2.462 0.205-251.385 25.949-424.41 151.59-5.231 3.795-11.282 5.744-17.744 5.744-6.359 0-12.513-1.949-17.744-5.744-172.103-124.923-421.949-151.385-424.41-151.59-15.59-1.436-27.282-14.462-27.282-30.051 0-6.872 0.615-170.051 56.205-353.231 32.923-108.513 78.359-201.436 135.282-276.103 72.103-94.667 162.564-160 268.718-194.051 2.974-0.923 6.051-1.436 9.231-1.436s6.256 0.513 9.128 1.436c106.256 34.051 196.615 99.282 268.718 194.051 56.821 74.564 102.359 167.385 135.282 276.103 55.487 183.179 56.205 346.359 56.205 353.231 0.103 15.59-11.59 28.513-27.179 30.051zM920.308 676.103l-0.103-1.641c-2.974-59.59-13.744-178.872-52.718-307.59-68.41-225.744-187.795-369.333-354.872-426.769l-0.615-0.205-0.615 0.205c-166.564 57.333-285.846 200.41-354.462 425.333-40.821 133.846-50.667 260.718-53.128 309.128l-0.103 1.641 1.538 0.205c72.41 10.564 256.923 45.949 405.641 146.051l0.923 0.718 1.026-0.718c148.923-100.103 333.436-135.487 405.846-146.154l1.641-0.205zM645.128 549.128l-179.282-235.179-91.282 78.051c-5.436 4.615-12.41 7.179-19.59 7.179-8.821 0-17.231-3.795-22.974-10.564-10.769-12.615-9.333-31.795 3.385-42.564l115.59-98.872c5.333-4.513 12.718-7.179 20.103-7.179 0.923 0 1.846 0 2.769 0.103 8.205 0.821 15.795 5.128 20.821 11.692l198.667 260.513c4.923 6.462 6.974 14.359 5.846 22.359-1.026 8-5.231 15.077-11.59 20-13.436 10.256-32.41 7.692-42.462-5.538z"  horiz-adv-x="1024" />

    
    <glyph glyph-name="selected" unicode="&#58911;" d="M512.704625 896C229.516353 896 0 666.804201 0 384.011441 0 101.21724900000004 229.516353-127.97282800000005 512.704625-127.97282800000005 795.92727-127.97282800000005 1025.403525 101.21724900000004 1025.403525 384.011441 1025.403525 666.804201 795.894333 896 512.704625 896L512.704625 896ZM417.15755 135.341051L188.045068 364.13354000000004 239.888112 415.904179 417.15755 238.88232400000004 785.549783 606.7643350000001 837.392829 554.993698 417.15755 135.341051 417.15755 135.341051Z"  horiz-adv-x="1026" />

    
    <glyph glyph-name="tixian" unicode="&#58888;" d="M992.4664158149003-9.317508165614981c0-14.927144752671605-2.4826758535901234-27.36596187026436-7.457919904426666-39.80619020717827-4.975244050836543-12.438815736751934-12.438815736751934-22.390717819427817-19.90238880350815-32.336966739774155-9.95190070183506-9.94907550151111-19.90380140367012-17.414059787588478-32.34261852126288-22.390717819427817-12.44022971775473-4.975244050836543-24.87622025418272-7.462159085753414-39.8047776070163-7.462159085753414L139.1802851874134-111.31354063690799c-14.927144752671605 0-27.36596187026436 2.4883290159196707-39.80619020717827 7.462159085753414-12.434577936266006 4.975244050836543-24.87339367301794 12.441642317916708-34.823881774691024 22.390717819427817-9.950488101673086 7.459333885429464-17.415473768591273 17.40982060626173-24.879045454506667 29.850050324016454-4.975244050836543 12.438815736751934-7.463573066756213 24.87622025418272-7.463573066756213 39.8047776070163L32.20759468428122 555.3959946740622c0 29.850050324016454 9.950488101673086 52.2393555432823 29.85428950534321 72.14174434679043 19.900976203346172 19.90238880350815 44.77578247652609 29.85428950534321 72.14174434679043 29.85428950534321l753.7784244104322 0c29.85428950534321 0 52.243593343768225-9.95190070183506 72.14739612827917-29.85428950534321 19.90238880350815-19.90238880350815 29.85428950534321-44.78002165785283 29.85428950534321-72.14174434679043l0-154.23821459573992L736.2321673670267 401.1577800783224c-29.848637723854488 0-52.24076814344427-9.95190070183506-72.14315694695242-29.85428950534321-19.90238880350815-19.90238880350815-29.85287690518123-44.78002165785283-29.85287690518123-72.14174434679043 0-19.90238880350815 4.975244050836543-37.316448591096616 12.438815736751934-52.243593343768225 4.975244050836543-12.44022971775473 14.927144752671605-24.879045454506667 29.85287690518123-34.829533556179754 14.92573215250963-9.95190070183506 34.829533556179754-14.927144752671605 59.70433982935967-14.927144752671605l256.2342484478735 0L992.4664158149003-9.317508165614981 992.4664158149003-9.317508165614981 992.4664158149003-9.317508165614981 992.4664158149003-9.317508165614981zM838.2296138193224 712.118299104395L323.27420326949925 712.118299104395c39.800538425689545 22.390717819427817 79.60531603270583 42.293106622935966 114.43343698872361 62.1954954264441 32.34120454026008 17.414059787588478 62.18984226411455 32.34120454026008 94.53104818521545 49.75102652736263 29.85428950534321 17.415473768591273 54.73050975952592 29.85287690518123 72.14739612827917 39.8047776070163 27.36172268893762 14.927144752671605 49.752439127524596 19.90238880350815 69.65341533087077 19.90238880350815 19.90238880350815 0 37.31786257209942-4.975244050836543 52.246419924933-9.950488101673086 17.40840800609975-7.463573066756213 29.84722512369251-19.90238880350815 42.286040860444444-32.34120454026008L838.2296138193224 712.118299104395 838.2296138193224 712.118299104395 838.2296138193224 712.118299104395zM683.9913992235827 299.1617476070294c0 14.922905571344854 4.975244050836543 27.360308707934816 14.92573215250963 37.313623390772676 9.95190070183506 9.950488101673086 22.392130419589797 14.924318171506828 37.313623390772676 14.924318171506828 14.92573215250963 0 27.36454788926156-4.975244050836543 37.315035990934646-14.924318171506828 9.95190070183506-9.953313301997037 14.927144752671605-22.392130419589797 14.927144752671605-37.313623390772676 0-14.92573215250963-4.975244050836543-27.36596187026436-14.927144752671605-37.316448591096616-9.950488101673086-9.950488101673086-22.38930383842502-14.92573215250963-37.315035990934646-14.92573215250963-14.922905571344854 0-27.36172268893762 4.975244050836543-37.313623390772676 14.92573215250963S683.9913992235827 284.23460147351693 683.9913992235827 299.1617476070294L683.9913992235827 299.1617476070294 683.9913992235827 299.1617476070294 683.9913992235827 299.1617476070294zM683.9913992235827 299.1617476070294"  horiz-adv-x="1024" />

    
    <glyph glyph-name="handcoins" unicode="&#58894;" d="M266.495343-65.750147 21.415752-65.750147C9.589002-65.750147 0-56.171408 0-44.335561L0 396.80516c0 11.835846 9.589002 21.414586 21.415752 21.414586l245.079591 0c11.826284 0 21.415169-9.578739 21.415169-21.414586l0-441.140722C287.910512-56.171408 278.321627-65.750147 266.495343-65.750147L266.495343-65.750147zM42.829754-22.919809l202.250536 0L245.080291 375.389408 42.829754 375.389408 42.829754-22.919809 42.829754-22.919809zM681.55683-127.988338c-83.463742 0-187.297655 49.020909-270.730611 88.421098-49.856348 23.548662-101.40713 47.890082-122.978914 47.890082-11.826167 0-21.414586 9.578623-21.414586 21.415635 0 11.835963 9.588419 21.414586 21.414586 21.414586 31.170349 0 79.762577-22.940625 141.268535-51.989842 79.563163-37.559751 178.58794-84.321338 252.44099-84.321338 134.427594 0 453.437785 178.263397 453.437785 235.920087 0 44.523722-18.906871 64.370169-61.319139 64.370169-13.802579 0-46.550861-26.768203-72.838489-48.28751-53.20265-43.478374-113.4958-92.812398-170.50562-76.479364-10.580823 3.012197-17.126841 13.572612-15.181682 24.384684 2.969982 16.437872 0.584131 28.860181-7.321633 37.97887-26.933332 31.076356-111.549475 27.960487-157.01394 26.329726-10.037624-0.37702-18.863489-0.691301-25.932298-0.691301-25.545015 0-47.137324 13.844794-74.481728 31.390753-48.581383 31.181194-115.136357 73.886169-253.675606 75.831211-11.826167 0.167461-21.278495 9.891971-21.111617 21.707292 0.177606 11.837012 10.236921 21.603621 21.718604 21.121879 150.773223-2.131861 226.248055-50.567474 276.198862-82.605097 21.435577-13.76153 38.364286-24.615817 51.351484-24.615817 6.651906 0 14.931191 0.314397 24.384684 0.648036 59.937703 2.196816 150.554451 5.521078 190.936314-41.052523 12.128436-13.990564 18.464895-30.888487 18.989901-50.401179 34.151292 3.891367 78.131816 39.84193 114.518524 69.620114 39.609631 32.374644 70.875138 57.951612 99.964237 57.951612 66.191131 0 104.14831-39.065266 104.14831-107.201556C1177.823787 54.918017 825.771557-127.988338 681.55683-127.988338L681.55683-127.988338zM830.165073 81.310482 487.065121 81.310482c-11.826167 0-21.415052 9.577573-21.415052 21.414586 0 11.836896 9.588885 21.414469 21.415052 21.414469l343.099952 0c11.835846 0 21.415752-9.577573 21.415752-21.414469C851.580825 90.888055 842.000919 81.310482 830.165073 81.310482L830.165073 81.310482zM830.165073 289.728967c-59.039175 0-107.076194 48.038068-107.076194 107.076194 0 59.037543 48.037018 107.074561 107.076194 107.074561 59.038126 0 107.072812-48.037018 107.072812-107.074561C937.237885 337.767035 889.203199 289.728967 830.165073 289.728967L830.165073 289.728967zM830.165073 461.049967c-35.426607 0-64.244807-28.818083-64.244807-64.244807 0-35.42789 28.818083-64.245973 64.244807-64.245973 35.425674 0 64.244923 28.818083 64.244923 64.245973C894.409996 432.231884 865.590747 461.049967 830.165073 461.049967L830.165073 461.049967zM585.084899 485.789981c-59.037543 0-107.074561 48.015911-107.074561 107.054503 0 59.03696 48.037018 107.074561 107.074561 107.074561s107.075611-48.037601 107.075611-107.074561C692.160509 533.805891 644.122442 485.789981 585.084899 485.789981L585.084899 485.789981zM585.084899 657.088824c-35.426257 0-64.24434-28.818199-64.24434-64.24434 0-35.406199 28.818083-64.224282 64.24434-64.224282 35.426141 0 64.244224 28.818083 64.244224 64.224282C649.329122 628.270624 620.51104 657.088824 585.084899 657.088824L585.084899 657.088824zM830.165073 681.850411c-59.039175 0-107.076194 48.036435-107.076194 107.075028C723.088879 847.962399 771.125898 896 830.165073 896c59.038126 0 107.072812-48.037601 107.072812-107.074561C937.237885 729.886847 889.203199 681.850411 830.165073 681.850411L830.165073 681.850411zM830.165073 853.169779c-35.426607 0-64.244807-28.818199-64.244807-64.24434 0-35.42789 28.818083-64.245973 64.244807-64.245973 35.425674 0 64.244923 28.818083 64.244923 64.245973C894.409996 824.35158 865.590747 853.169779 830.165073 853.169779L830.165073 853.169779zM256.885933 285.589208 25.189802 285.589208c-11.826167 0-21.414586 9.577573-21.414586 21.414586 0 11.837012 9.588419 21.414586 21.414586 21.414586l231.696131 0c11.826167 0 21.415169-9.577573 21.415169-21.414586C278.301102 295.166781 268.712101 285.589208 256.885933 285.589208L256.885933 285.589208zM256.885933 193.947637 25.189802 193.947637c-11.826167 0-21.414586 9.578506-21.414586 21.415635 0 11.835846 9.588419 21.414586 21.414586 21.414586l231.696131 0c11.826167 0 21.415169-9.578739 21.415169-21.414586C278.301102 203.526259 268.712101 193.947637 256.885933 193.947637L256.885933 193.947637zM256.885933 102.390263 25.189802 102.390263c-11.826167 0-21.414586 9.578739-21.414586 21.415752s9.588419 21.414586 21.414586 21.414586l231.696131 0c11.826167 0 21.415169-9.577573 21.415169-21.414586S268.712101 102.390263 256.885933 102.390263L256.885933 102.390263zM256.885933 10.749625 25.189802 10.749625c-11.826167 0-21.414586 9.578739-21.414586 21.414586 0 11.837012 9.588419 21.415752 21.414586 21.415752l231.696131 0c11.826167 0 21.415169-9.578739 21.415169-21.415752C278.301102 20.328364 268.712101 10.749625 256.885933 10.749625L256.885933 10.749625z"  horiz-adv-x="1178" />

    
    <glyph glyph-name="shuzijianpanshanchu" unicode="&#58922;" d="M937.562353 82.82352900000001L346.232471 82.82352900000001 0 383.84941200000003 346.232471 685.176471 937.562353 685.176471C985.359059 685.176471 1024.090353 646.656 1024.090353 599.130353L1024.090353 168.869647C1024.090353 121.34400000000005 985.359059 82.82352900000001 937.562353 82.82352900000001ZM995.237647 584.794353C995.237647 632.3199999999999 970.932706 656.504471 923.136 656.504471L432.760471 656.504471C407.04 656.504471 380.295529 657.2574119999999 360.688941 650.932706L360.688941 656.323765 347.136 644.698353C346.864941 644.517647 346.473412 644.457412 346.232471 644.276706L346.232471 643.915294 43.279059 383.87952900000005 346.232471 123.87388199999998 346.232471 123.72329400000001C346.352941 123.66305899999998 346.503529 123.63294099999996 346.624 123.54258800000002L360.658824 111.49552900000003 360.658824 117.09741199999996C380.265412 110.74258799999996 407.009882 111.49552900000003 432.760471 111.49552900000003L908.709647 111.49552900000003C956.506353 111.49552900000003 995.237647 135.67999999999995 995.237647 183.205647L995.237647 584.794353ZM762.398118 254.10258799999997C755.802353 247.53694099999996 745.110588 247.53694099999996 738.514824 254.10258799999997L619.188706 372.736 499.892706 254.10258799999997C493.296941 247.53694099999996 482.605176 247.53694099999996 476.009412 254.10258799999997 469.443765 260.63811799999996 469.443765 271.26964699999996 476.009412 277.80517599999996L595.335529 396.468706 476.009412 515.102118C469.443765 521.6677649999999 469.443765 532.2992939999999 476.009412 538.834824 482.605176 545.4004709999999 493.296941 545.4004709999999 499.892706 538.834824L619.188706 420.201412 738.514824 538.834824C745.110588 545.4004709999999 755.802353 545.4004709999999 762.398118 538.834824 768.993882 532.2992939999999 768.993882 521.6677649999999 762.398118 515.102118L643.072 396.468706 762.398118 277.80517599999996C768.993882 271.26964699999996 768.993882 260.63811799999996 762.398118 254.10258799999997Z"  horiz-adv-x="1025" />

    
    <glyph glyph-name="xuanzhong2" unicode="&#58938;" d="M510.595001 832.273606c-246.679215 0-446.651666-199.971427-446.651666-446.651666C63.943334 138.944771 263.914762-61.029726 510.595001-61.029726c246.677169 0 446.651666 199.974497 446.651666 446.651666C957.245643 632.301156 757.271146 832.273606 510.595001 832.273606zM525.253862 221.653495l-42.181705-44.668339L272.368294 399.965623l41.97295 45.037752 168.728866-178.678472 253.092275 268.01822 42.181705-44.668339L525.253862 221.653495 525.253862 221.653495z"  horiz-adv-x="1024" />

    
    <glyph glyph-name="shanchu" unicode="&#59062;" d="M846.9150904767218 612.0884720289463c-16.816607844746816 8.361264888812649-33.550896842073406 6.844242230129564-48.826962152230834-4.104193206836731-13.829602279193278-9.890046767197012-19.709535343178832-23.943085712744676-19.709535343178832-40.80673330930416 0.05879897151391796-197.1894257528949 0.04703975181263455-394.3788500692861 0.04703975181263455-591.5682758221809 0-1.5640624104957215 0-3.128124820991443 0-4.833305050421315-177.76212748408813 0-355.13617917047753 0-532.8042271509406 0 0 1.6816603535235572 0 3.128124820991443 0 4.598107727861892 0 153.71320304801682 0 307.42640465952996 0 461.1396077075468 0 44.51109149874099 0.10583872332655249 89.01042234127694-0.03527909560760068 133.52151384001792-0.11759794302783592 34.185929182032716-35.64415286920188 57.176466384838434-66.64315825872923 42.89998933643259-18.933383747781615-8.73758003030622-28.117838547300373-24.21356356741546-28.117838547300373-45.075564210981334 0-214.3117891114163 0-428.6118190031313 0-642.9353687707527 0-0.9055101946300881-0.011759219701283408-1.8110189527564262 0.011759219701283408-2.7165291473865145 0.5997532443517143-21.36767582079607 14.38231577173236-39.16035205138817 34.78568242638444-44.863886764328214 2.399012977406857-0.6585522158656326 4.845064270122598-1.1407075171895107 7.279356343137056-1.7287001053361915 212.95940558407747 0 425.90705051195005 0 638.8664546595231-0.03527909560760068 4.115952426538015 1.2112657084047125 8.384784764718965 2.0579769315208822 12.324338840211478 3.6925975332318055 18.333630503429905 7.502794445995198 29.282064503892446 24.74275718404823 29.282064503892446 45.75763630275331 0.011759219701283408 214.19419116838844 0.011759219701283408 428.4001415564783 0 642.5943327248667 0 0.9172694143313715 0.023519875906317274 1.8227796089614603-0.011759219701283408 2.7400490232928325C872.4222385999618 589.262572520981 863.8610569207018 603.6684081686199 846.9150904767218 612.0884720289463zM988.9272263682815 733.6502015140411c-5.515377142193263 21.167757593844254-24.21356356741546 35.550073365576615-46.29859057559108 35.550073365576615-92.42078280013666 0.011759219701283408-184.8180471608709 0-277.21531008510107 0-1.4464630309641342 0-2.904686718133303 0-4.739225546796045 0 0 1.7051802294298741 0 3.045804537067456 0 4.374669625003753 0 29.09390693314566 0.023519875906317274 58.176054646590046 0 87.26996157973568 0 17.251723394258068-10.101724213850124 28.799910639072323-27.224089008875318 31.116604769058938-0.5527134925390798 0.07055962771895181-1.081907109171842 0.3057569502783742-1.6228613820096387 0.45863542541756114-79.64956919071268 0-159.32265825733165 0-238.9722274480443 0-2.0226963994095315-0.31751616997965754-4.057153455024096-0.5291936166327624-6.044570758826028-0.9760683858452898-13.947200222221117-3.1046049450851223-23.378613000504316-14.85271041685121-23.402132876410644-29.38790466372275-0.05879897151391796-29.55254235856322-0.023519875906317274-59.11684393682772-0.023519875906317274-88.66938629539098 0-1.2347855843110291 0-2.4695711686220583 0-4.1865120542569665-1.6463812579159556 0-3.0810850691788065 0-4.515788880441659 0-92.31494407681014 0-184.629889590124 0-276.94483366693413 0-24.037165216369953 0-43.13518665899205-15.875818554509124-47.55689603580843-39.51314875347919-0.43511554951124376-2.340212569389189-0.6585522158656326-4.703946451188446-0.9878290420503235-7.067678896483953 0-0.44687476921252717 0-0.9055101946300881 0-1.364144183543899 0.5644741487441136-3.5867588099052523 0.8584704428174539-7.244077247529455 1.7287001053361915-10.760276429715757 5.397777762661679-21.88511021772755 24.178283035304112-36.10278685811571 47.580415911714724-36.10278685811571 286.2586470656857 0 572.5290533510728 0 858.7877004167584 0 1.2700661164223805 0 2.516610920434693 0.023519875906317274 3.7749163806520407 0.08231884742023525 20.932560271284835 1.081907109171842 38.29012238886945 15.134947491223269 43.64086039971849 35.38543567073614 0.6820720917719495 2.6224496437612452 1.1407075171895107 5.315458915241441 1.7169408856349078 7.9731890911140395 0 2.516610920434693 0 5.021462621168104 0.011759219701283408 7.526314321901513C990.067933885471 728.1230651521469 989.6328183359599 730.9219131469533 988.9272263682815 733.6502015140411zM601.2985390254997 769.4001931065698c-59.504919734526325 0-118.85696099391348 0-178.42067969995367 0 0 21.09719940262905 0 42.029759673913894 0 63.30335599108471 59.610758457852896 0 118.86872021361478 0 178.42067969995367 0C601.2985390254997 811.6063511315291 601.2985390254997 790.5914705763204 601.2985390254997 769.4001931065698zM682.4651308748952 68.33580944103937c0.011759219701283408 77.57983303949051 0 155.17142529868227 0 232.76301899437794 0 76.99183901484008 0 154.0189585617915 0 231.0343188890416 0 1.2583054602173465 0.023519875906317274 2.516610920434693-0.03527909560760068 3.7631571609507564-0.7291118435845839 18.357150379336225-18.510028854475408 31.798676860830895-36.34974483688014 27.482806207341067-13.982480754332464-3.3868405829534307-22.91997757508677-15.07614708320559-22.91997757508677-30.14053494670989-0.011759219701283408-154.81863003309502 0-309.6490192858914 0-464.4794085386874 0-0.576233368445397-0.011759219701283408-1.1407075171895107 0-1.7169408856349078 0.6350323399593151-17.063564387007528 14.323516800218444-29.823018776730237 31.163643084367834-29.09390693314566C670.2466307580107 38.66566913944803 682.4533716551944 51.78967801445924 682.4651308748952 68.33580944103937zM399.2052500309681 533.2738534051448c0 1.7051802294298741 0.03527909560760068 3.422121115064782-0.07055962771895181 5.127301344494655-0.7173511873795501 11.595226996626893-6.30328795729177 20.21520908390528-16.651970149906344 25.22491104886835-10.489800011548734 5.080261592682023-20.90904039537851 4.115952426538015-30.375732269269324-2.7870887751054663-8.54942245955944-6.232728329572813-12.124422049763398-14.923270044570154-12.124422049763398-25.471869027632795 0.04703975181263455-154.59519193023684 0.03527909560760068-309.17862464077245 0.03527909560760068-463.7738165710094 0-0.7996714713035357 0.011759219701283408-1.5993415061033214 0.03527909560760068-2.399012977406857 0.6467929961643488-22.590702185405814 25.283711456886007-36.243906113553585 44.640450097973854-24.566358833002727 10.28988178459691 6.197449233965213 14.558714122777861 15.664141107856027 14.54695346657283 27.60040415036888-0.0940795036252691 77.13295827027802-0.04703975181263455 154.25415588435095-0.04703975181263455 231.37535493492754C399.19348937476326 380.1604036014794 399.2052500309681 456.7171285033122 399.2052500309681 533.2738534051448zM516.9803024792059 39.58293855377974c14.864469636552487 2.7753281189004326 24.636918460721667 14.629272313993072 24.636918460721667 30.04645687958838 0.023519875906317274 77.57983303949051 0 155.15966607898102 0 232.73949911847149 0 77.0035996710451 0 154.0071993420902 0 231.0225582328366 0 1.4935027827767682 0.023519875906317274 2.9752463458522542-0.07055962771895181 4.445229252722704-0.9643091661440063 17.74563647877947-18.227791780103345 30.82260703848185-35.58535246118421 26.941851934503262-14.370555115527322-3.1986830122066428-23.484451723830876-14.935029264271442-23.484451723830876-30.31693329775541 0-154.6892714338621 0-309.413821963332 0-464.103093397194 0-1.0466280135642416 0-2.0697361512221666 0.03527909560760068-3.0928442888800904C483.10013024745183 49.896340214282986 499.91673809219844 36.384254105069886 516.9803024792059 39.58293855377974z"  horiz-adv-x="1024" />

    
    <glyph glyph-name="shape" unicode="&#58935;" d="M1024.952612900932 784.5533828299073L924.66379278687 884.8422008139294C907.7319146057398 901.7740789950597 884.2877766507332 910.8912452345343 860.843635500667 910.8912452345343 836.0970443128612 910.8912452345343 813.9553574606139 901.7740789950597 797.0234792794838 884.8422008139294L747.5302947738325 835.349017373298 747.5302947738325 835.349017373298 222.64206370365548 310.4607841730814C221.3396115358762 309.1583330703219 220.03715936809692 307.8558819675625 220.03715936809692 306.55342766974354 220.03715936809692 306.55342766974354 220.03715936809692 305.25097656698426 218.7347072003178 305.25097656698426 217.43225503253848 303.94852546422453 217.43225503253848 302.64607116640593 216.1298028647593 301.34362006364654 216.1298028647593 301.34362006364654 216.1298028647593 301.34362006364654 216.1298028647593 300.04116896088703 216.1298028647593 298.7387146630681 216.1298028647593 298.7387146630681 214.82735069697998 297.4362624952888L143.1924804041014 35.64337251157997C140.5875760685429 26.526207337125584 143.1924804041014 16.106591059911352 149.70474124299767 9.59432915599507 154.91454991411462 4.3845215498981815 161.4268107530109 1.7796150842998486 169.24152375968634 1.7796150842998486 171.8464280952449 1.7796150842998486 174.4513324308034 1.7796150842998486 175.75378459858274 3.082069382118675L438.84912568505086 76.0193918427766C440.1515799828698 76.0193918427766 440.1515799828698 76.0193918427766 441.4540310856292 77.32184294553588L442.75648218838865 77.32184294553588C444.05893648620753 77.32184294553588 445.361387588967 78.62429724335493 446.6638386917265 79.92674834611432 446.6638386917265 79.92674834611432 447.96629298954525 79.92674834611432 447.96629298954525 81.22919944887383 449.2687451573246 82.53165055163322 450.57119626008404 82.53165055163322 451.87365055790286 83.83410484945205L975.4594283952808 607.4198848168696 1024.952612900932 656.9130671924811C1060.1188203659517 690.7768246197616 1060.1188203659517 749.3871732348476 1024.952612900932 784.5533828299073L1024.952612900932 784.5533828299073ZM269.53034280872845 85.13655701723133L225.2469680392141 129.41992965670602 255.20336789813678 240.12836817802167 380.23877920000433 115.09295687615418 269.53034280872845 85.13655701723133 269.53034280872845 85.13655701723133ZM279.9499601509625 292.2264548891918L765.7646272527817 778.041120925991 778.7891489305742 765.0165992481986 823.0725226350685 720.7332255437042 337.25785446822965 234.918557376865 279.9499601509625 292.2264548891918 279.9499601509625 292.2264548891918ZM432.33686591117447 139.83954912897968L375.02896839884767 197.14744344624717 860.843635500667 682.962111613086 918.1515340780134 625.6542151657791 432.33686591117447 139.83954912897968 432.33686591117447 139.83954912897968ZM985.8790478675546 693.38172895532L955.9226480086315 663.4253290963973 803.5357411833998 815.8122348566093 834.7945921450819 847.0710868833112C841.3068519189583 853.5833487872274 850.4240202884725 857.4907052905651 860.843635500667 857.4907052905651 871.2632549729406 857.4907052905651 880.3804201473955 853.5833487872274 886.892678856252 847.0710868833112L987.1814989703138 746.7822688992892C1000.2060206481062 731.1528428859382 1000.2060206481062 707.7087028008918 985.8790478675546 693.38172895532L985.8790478675546 693.38172895532ZM910.3368200063184 427.6814824682735C896.0098440307067 427.6814824682735 882.9853223529143 415.9594118932404 882.9853223529143 400.3299848148696L882.9853223529143-37.29394994907773C882.9853223529143-59.43563573630513 864.7509930690246-77.6699660852147 842.6093062167773-77.6699660852147L102.8164621379247-77.6699660852147C80.67477528567758-77.6699660852147 62.44044387174824-59.43563573630513 62.44044387174824-37.29394994907773L62.44044387174824 703.801346297554C62.44044387174824 725.9430342148212 80.67477528567758 744.1773645637306 102.8164621379247 744.1773645637306L540.4403958368522 744.1773645637306C554.7673718124637 744.1773645637306 567.7918934902563 755.8994340737438 567.7918934902563 771.5288600870948 567.7918934902563 787.1582871654657 556.0698239802429 798.880356675479 540.4403958368522 798.880356675479L102.8164621379247 798.880356675479C50.7183743617349 798.880356675479 9.039903927779108 757.201886241523 9.039903927779108 705.1037984653333L9.039903927779108-34.68904348347962C9.039903927779108-86.78713338970897 50.7183743617349-128.46560062860567 102.8164621379247-128.46560062860567L842.6093062167773-128.46560062860567C894.7073929279475-128.46560062860567 936.3858633619031-86.78713338970897 936.3858633619031-34.68904348347962L936.3858633619031 400.3299848148696C937.6883144646625 414.6569607904809 925.9662438896294 427.6814824682735 910.3368200063184 427.6814824682735L910.3368200063184 427.6814824682735Z"  horiz-adv-x="1055" />

    
    <glyph glyph-name="dengji" unicode="&#58897;" d="M830.464 502.784c0 169.472-137.216 306.688-306.688 306.688-169.472 0-306.688-137.216-306.688-306.688 0-94.72 43.008-179.712 111.104-236.032l0-308.224 196.096 97.28 196.096-97.28L720.384 266.24C787.456 322.56 830.464 407.552 830.464 502.784zM523.776 306.688c-108.032 0-196.096 87.552-196.096 196.096 0 108.032 87.552 196.096 196.096 196.096 108.032 0 196.096-87.552 196.096-196.096C719.872 394.24 631.808 306.688 523.776 306.688z"  horiz-adv-x="1024" />

    
    <glyph glyph-name="dunpai" unicode="&#58890;" d="M920.399502 746.676883c-145.264892 6.356256-280.116742 58.352442-397.675837 141.741628l-10.722227 7.581489-10.687713-7.581489c-117.523143-83.390625-252.395126-135.386811-397.701722-141.741628L82.118655 746.676883 82.118655 405.334442c0-251.795452 174.674799-474.567837 424.90132-532.405451l5.919083-0.928991 4.134442 0.946248c250.125856 57.811728 424.807845 280.591304 424.807845 532.386756l0 341.342441L920.399502 746.675445 920.399502 746.676883zM512 832.001708c112.491347-77.015674 236.786347-116.102333 373.057569-126.9885L885.057569 376.938372c-31.525303-371.712976-370.030438-447.704747-375.551177-448.921352l0 1.163396c0 0-339.12638 74.162549-370.911973 448.93717l0 326.875488c2.046369 0.162502 4.095615 0.320689 6.134793 0.496133C278.790125 717.008124 401.130792 756.087593 512 832.001708L512 832.001708zM262.30844 400.09844 436.515867 219.656993l0.824012 0c6.10747-12.101333 18.640223-20.404732 33.120119-20.404732 14.478458 0 27.012649 8.303398 33.118681 20.404732l0.432858 0L765.978437 497.78345c9.709828 5.540872 16.263099 15.982676 16.263099 27.963211 0 17.771631-14.406554 32.178185-32.179624 32.178185-13.166941 0-24.480213-7.912244-29.463115-19.238459l-249.65417-265.280205c-0.162502 0.002876-0.322127 0.011505-0.484629 0.011505-0.805317 0-1.603445-0.033076-2.395819-0.084846L306.090388 443.351179c-5.379808 10.254855-16.122168 17.252489-28.505363 17.252489-17.771631 0-32.178185-14.407993-32.178185-32.178185C245.405401 416.181781 252.244848 405.537209 262.30844 400.09844L262.30844 400.09844z"  horiz-adv-x="1024" />

    
    <glyph glyph-name="xialajiantou" unicode="&#59021;" d="M981.504663 10.969269 1824.993702 848.433875 1909.789455 762.860243 1066.495337-74.410345C1007.025754-133.880832 914.67511-133.880832 855.010545-74.216328L17.739957 763.054261 102.925553 848.239857 940.196141 10.969269C952.81399-1.64858 968.886874-1.64858 981.504663 10.969269Z"  horiz-adv-x="1928" />

    
    <glyph glyph-name="more" unicode="&#59106;" d="M62 382.65c0 23.67 8.010 43.74 24.030 60.21s35.64 24.66 58.95 24.66c22.41 0 42.030-8.37 58.95-25.020s25.38-36.63 25.38-59.94c0-22.86-8.1-42.3-24.39-58.23s-36.45-24.030-60.57-24.030c-23.31 0-42.75 7.92-58.59 23.67-15.84 15.93-23.76 35.46-23.76 58.68zM426.77 382.65c0 23.67 8.19 43.74 24.66 60.21s36.54 24.66 60.21 24.66c22.77 0 42.48-8.46 58.95-25.38 16.47-16.92 24.66-36.72 24.66-59.58 0-22.86-8.1-42.3-24.39-58.23s-36.18-24.030-59.94-24.030c-23.67 0-43.65 8.010-59.94 24.030s-24.21 35.55-24.21 58.32zM794.15 382.65c0 23.67 8.37 43.74 25.020 60.21s36.18 24.66 58.59 24.66c23.31 0 43.11-8.46 59.58-25.38 16.47-16.92 24.66-36.72 24.66-59.58 0-22.86-8.1-42.3-24.39-58.23-16.2-16.020-36.18-24.030-59.94-24.030-24.12 0-44.1 8.1-59.94 24.39-15.75 16.29-23.58 35.64-23.58 57.96z"  horiz-adv-x="1024" />

    
    <glyph glyph-name="zhifubao" unicode="&#58917;" d="M845.869176 236.303059C991.051294 186.744471 1024 184.079059 1024 184.079059V709.812706C1024 812.649412 940.649412 896 837.812706 896H186.187294C83.350588 896 0 812.649412 0 709.812706v-651.640471C0-44.649412 83.350588-128 186.187294-128h651.640471c91.994353 0 168.207059 66.785882 183.280941 154.473412-28.792471 12.257882-267.474824 114.191059-391.800471 175.119059C540.491294 90.187294 425.908706 22.603294 306.974118 22.588235 105.803294 22.588235 37.496471 202.044235 132.743529 320.180706c20.766118 25.735529 56.109176 50.341647 110.938353 64.12047 85.744941 21.488941 222.283294-13.387294 350.208-56.44047a723.576471 723.576471 0 0 1 56.801883 141.462588H256.406588v40.749177h203.294118v72.96H213.473882v40.749176h246.226824v104.086588s0 17.528471 17.438118 17.528471h99.373176v-121.615059H819.952941v-40.749176H576.496941v-72.96l198.731294-0.015059c-19.019294-79.405176-47.917176-152.500706-84.148706-216.681412 60.325647-22.241882 114.447059-43.294118 154.789647-57.072941zM260.818824 323.358118c-25.208471-2.56-72.493176-13.914353-98.349177-37.210353-77.537882-68.894118-31.141647-194.846118 125.711059-194.861177 91.166118 0 182.287059 59.437176 253.846588 154.563765-101.782588 50.672941-188.024471 86.904471-281.20847 77.507765z"  horiz-adv-x="1024" />

    
    <glyph glyph-name="yinhangqia" unicode="&#59057;" d="M-9.071881481481455 55.4704592592592c0-33.13208888888889 26.942577777777778-60.07466666666666 60.07466666666666-60.07466666666666h918.7176296296296c33.13208888888889 0 60.07466666666666 26.942577777777778 60.07466666666666 60.07466666666666V478.4203851851852h-1038.8669629629628v-422.9499259259259zM851.8769777777778 246.8598518518519h60.681481481481484v-107.89167407407407h-60.681481481481484V246.8598518518519z m-146.1210074074074 0h60.681481481481484v-107.89167407407407h-60.681481481481484V246.8598518518519zM559.6349629629628 246.8598518518519h60.681481481481484v-107.89167407407407h-60.681481481481484V246.8598518518519zM969.7204148148146 772.2401185185184h-918.7176296296296c-33.13208888888889 0-60.07466666666666-26.942577777777778-60.07466666666666-60.07466666666666v-112.50346666666665h1038.8669629629628v112.50346666666665c0 33.25345185185185-26.942577777777778 60.07466666666666-60.07466666666666 60.07466666666666z"  horiz-adv-x="1024" />

    
    <glyph glyph-name="jia" unicode="&#58912;" d="M1019.7244479231757 444.9868033258107H572.9374729084457V891.7250286680126H451.06252709155444v-446.7382253422019H4.275552076824169v-121.87378546148521h446.78697501473016v-446.83688617693184h121.87494581689124V323.11301786432557h446.78697501473016z"  horiz-adv-x="1024" />

    
    <glyph glyph-name="tixianjilu" unicode="&#58940;" d="M20.55509333333337 344.9696711111112h222.53112888888887l-23.301688888888886-23.88423111111111c-0.5825422222222223-0.5825422222222223-1.1650844444444446-1.1650844444444446-1.1650844444444446-2.330168888888889v-87.38133333333333c0-1.1650844444444446 0.5825422222222223-2.330168888888889 1.7476266666666667-2.912711111111111h1.1650844444444446c0.5825422222222223 0 1.7476266666666667 0.5825422222222223 2.330168888888889 1.1650844444444446l143.8879288888889 145.63555555555556c1.1650844444444446 1.1650844444444446 1.1650844444444446 3.4952533333333333 0 4.660337777777778l-143.8879288888889 145.63555555555556c-0.5825422222222223 0.5825422222222223-1.1650844444444446 1.1650844444444446-2.330168888888889 1.1650844444444446h-1.1650844444444446c-1.1650844444444446-0.5825422222222223-1.7476266666666667-1.7476266666666667-1.7476266666666667-2.912711111111111v-87.38133333333333c0-0.5825422222222223 0.5825422222222223-1.7476266666666667 1.1650844444444446-2.330168888888889l23.301688888888886-23.88423111111111H20.55509333333337c-1.7476266666666667 0-2.912711111111111-1.1650844444444446-2.912711111111111-2.912711111111111v-58.254222222222225c-0.5825422222222223-2.912711111111111 1.1650844444444446-4.077795555555555 2.912711111111111-4.077795555555555zM973.0116266666665 491.1877688888889V664.7853511111111c0 84.46862222222221-68.73998222222221 153.20860444444446-153.20860444444446 153.20860444444446H170.26844444444444c-84.46862222222221 0-153.20860444444446-68.73998222222221-153.20860444444446-153.20860444444446v-174.76266666666666c0-1.7476266666666667 1.1650844444444446-2.912711111111111 2.912711111111111-2.912711111111111h50.098631111111104c1.7476266666666667 0 2.912711111111111 1.1650844444444446 2.912711111111111 2.912711111111111V639.7360355555555c0 80.9733688888889 40.77795555555556 121.75132444444444 121.75132444444444 121.75132444444444h599.4359466666666c80.9733688888889 0 121.75132444444444-40.77795555555556 121.75132444444444-121.75132444444444V494.6830222222222h-201.55960888888887c-39.61287111111111 0-71.65269333333332-32.03982222222222-71.65269333333332-71.65269333333332v-115.92590222222223c0-39.61287111111111 32.03982222222222-71.65269333333332 71.65269333333332-71.65269333333332H915.9224888888888v-120.58623999999998c0-80.9733688888889-40.77795555555556-121.75132444444444-121.75132444444444-121.75132444444444H195.31776000000005c-80.9733688888889 0-121.75132444444444 40.77795555555556-121.75132444444444 121.75132444444444v149.7133511111111c0 1.7476266666666667-1.1650844444444446 2.912711111111111-2.912711111111111 2.912711111111111h-50.098631111111104c-1.7476266666666667 0-2.912711111111111-1.1650844444444446-2.912711111111111-2.912711111111111v-174.76266666666666c0-84.46862222222221 68.73998222222221-153.20860444444446 153.20860444444446-153.20860444444446h649.5345777777778c84.46862222222221 0 153.20860444444446 68.73998222222221 153.20860444444446 153.20860444444446v149.1308088888889c29.709653333333332 9.320675555555557 50.098631111111104 37.28270222222223 50.098631111111104 68.15744000000001V423.03032888888885c-1.1650844444444446 30.874737777777778-21.55406222222222 58.254222222222225-50.68117333333333 68.15744000000001z m-45.438293333333334-208.5501155555555h-188.74368c-27.962026666666667 0-51.26371555555555 22.719146666666667-51.26371555555555 50.68117333333333V402.0588088888889c0 27.962026666666667 22.719146666666667 50.68117333333333 51.26371555555555 50.68117333333333H927.5733333333334c27.962026666666667 0 51.26371555555555-22.719146666666667 51.26371555555555-50.68117333333333v-68.15744000000001c0-28.54456888888889-23.301688888888886-51.26371555555555-51.26371555555555-51.26371555555555zM762.1313422222221 407.88423111111115c-9.903217777777778 0-20.38897777777778-4.077795555555555-27.379484444444444-11.068302222222222-7.573048888888889-6.990506666666667-11.650844444444443-16.31118222222222-11.650844444444443-27.962026666666667 0-9.903217777777778 4.077795555555555-20.38897777777778 11.650844444444443-27.379484444444444 6.990506666666667-6.990506666666667 17.476266666666668-11.068302222222222 27.962026666666667-11.068302222222222 9.903217777777778 0 20.971519999999998 4.077795555555555 27.962026666666667 11.068302222222222 6.990506666666667 6.990506666666667 11.650844444444443 17.476266666666668 11.650844444444443 27.379484444444444 0 9.903217777777778-4.077795555555555 20.38897777777778-11.650844444444443 27.379484444444444-7.573048888888889 6.990506666666667-18.05880888888889 11.650844444444443-28.54456888888889 11.650844444444443z"  horiz-adv-x="1024" />

    
    <glyph glyph-name="dingdan" unicode="&#58915;" d="M854.5103804675196 864.6285191685548h-63.36868046585017c-17.572827356076097 0-37.701702327581444-10.756700381598096-37.701702327581444-28.3295277376742s20.235376955481566-35.03915272817598 37.701702327581444-35.03915272817598h63.36868046585017c37.701702327581444 0 63.36868046585017-25.560476154292505 63.36868046585017-63.36868046585017v-729.2190842851701c0-37.701702327581444-25.560476154292505-63.36868046585017-63.36868046585017-63.36868046585017H172.4716750838145c-37.701702327581444 0-79.55698203023545 25.560476154292505-79.55698203023545 63.36868046585017V737.8911582368544c0 37.701702327581444 25.560476154292505 63.36868046585017 63.36868046585017 63.36868046585017h79.55698203023545c17.572827356076097 0 24.282452346577884 17.572827356076097 24.282452346577884 35.03915272817598s-6.7096249905017835 28.3295277376742-24.282452346577884 28.3295277376742H156.28337351942918C67.35421689928648 864.6285191685548 29.54601258772891 809.3539894848974 29.54601258772891 736.6131344291399v-721.1249335029775c0-78.17245623854458 47.180378901464906-133.4469859222021 133.4469859222021-133.4469859222021h684.7012549831104c86.26660702073721 0 133.4469859222021 45.795853109774086 133.4469859222021 133.4469859222021V736.6131344291399c0.1065019839762188 72.74085505575744-44.411327318083245 128.015384739415-126.63085894772411 128.015384739415zM235.8403555496647 578.8836961603599c0-17.572827356076097 14.80377577269441-32.37660312877051 32.37660312877051-32.37660312877051h475.74436242176927c17.572827356076097 0 32.37660312877051 14.80377577269441 32.37660312877051 32.37660312877051s-14.80377577269441 32.37660312877051-32.37660312877051 32.37660312877051H268.21695867843533c-17.572827356076097-0.1065019839762188-32.37660312877051-14.91027775667063-32.37660312877051-32.37660312877051z m506.73643975884903-142.9256624960856H268.21695867843533c-17.572827356076097 0-32.37660312877051-14.80377577269441-32.37660312877051-32.37660312877051s14.80377577269441-32.37660312877051 32.37660312877051-32.37660312877051h475.74436242176927c17.572827356076097 0 32.37660312877051 14.80377577269441 32.37660312877051 32.37660312877051-1.3845257916908442 18.850851163790722-16.188301564385256 32.37660312877051-33.76112892046135 32.37660312877051z m0-189.99953941357435H268.21695867843533c-17.572827356076097 0-32.37660312877051-14.80377577269441-32.37660312877051-32.37660312877051s14.80377577269441-32.37660312877051 32.37660312877051-32.37660312877051h475.74436242176927c17.572827356076097 0 32.37660312877051 14.80377577269441 32.37660312877051 32.37660312877051-1.3845257916908442 18.850851163790722-16.188301564385256 32.37660312877051-33.76112892046135 32.37660312877051zM396.2323434178503 785.0715371383195h221.0981187346302c25.560476154292505 0 47.180378901464906 25.560476154292505 47.180378901464906 55.27452968365755S642.9974402907491 895.6205965056345 615.9459363607896 895.6205965056345H396.2323434178503c-26.945001945983357 0-48.56490469315577-25.560476154292505-48.56490469315577-55.27452968365755s21.619902747172414-55.27452968365755 48.56490469315577-55.27452968365755z"  horiz-adv-x="1024" />

    
    <glyph glyph-name="jianshao" unicode="&#58881;" d="M-3.011015104449484 309.58192320730666h1030.022030208899v148.83615358538646h-1030.022030208899z"  horiz-adv-x="1024" />

    
    <glyph glyph-name="xuanzhong1" unicode="&#59350;" d="M1008.4352 380.17706666666675c0.5461333333333334-270.88213333333334-218.99946666666668-490.9738666666666-490.4277333333333-491.52-270.88213333333334-0.5461333333333334-490.9738666666666 218.99946666666668-491.52 490.4277333333333-0.5461333333333334 271.4282666666667 218.99946666666668 490.9738666666666 490.4277333333333 491.52 270.88213333333334 0.5461333333333334 490.9738666666666-218.99946666666668 491.52-490.4277333333333z m-51.336533333333335-0.5461333333333334c1.0922666666666667 241.39093333333332-194.42346666666666 437.4528-438.5450666666667 439.63733333333334-240.8448 2.1845333333333334-439.63733333333334-195.5157333333333-440.1834666666667-439.0912-1.0922666666666667-241.39093333333332 194.96959999999999-437.4528 438.5450666666667-439.63733333333334 240.29866666666666-2.1845333333333334 439.0912 195.5157333333333 440.1834666666667 439.0912zM517.4613333333333 379.63093333333336m-251.7674666666667 0a251.7674666666667 251.7674666666667 0 1 1 503.5349333333334 0 251.7674666666667 251.7674666666667 0 1 1-503.5349333333334 0Z"  horiz-adv-x="1024" />

    
    <glyph glyph-name="yue" unicode="&#58943;" d="M1024.00032 8.981333333333396c0-13.984-2.368-26.848-7.328-38.912a96.096 96.096 0 0 0-52.48-53.088c-11.968-5.12-25.12-7.616-39.488-7.616H106.04832c-14.208 0-27.776 2.496-40.544 7.616a109.632 109.632 0 0 0-33.888 21.28 99.2 99.2 0 0 0-23.136 31.808A91.584 91.584 0 0 0 0.00032 8.981333333333396V555.6053333333333c0 27.744 9.984 51.264 29.92 70.72 19.936 19.264 44.128 28.992 72.704 28.992h818.752c28.576 0 52.8-9.728 72.736-28.992 19.936-19.328 29.888-42.848 29.888-70.72v-148.928h-256.032c-28.608 0-52.768-9.44-72.704-28.512a92.928 92.928 0 0 1-29.92-70.048c0.768-19.072 4.896-35.712 12.352-50.336 6.016-12.352 15.968-23.616 29.952-33.92 13.952-10.24 34.016-15.328 60.352-15.328h256v-199.552zM870.59232 705.5253333333334H358.65632a8307.84 8307.84 0 0 1 114.976 59.168c31.264 15.904 62.496 31.936 93.632 48.224 30.816 16.032 54.88 28.512 72.192 37.184 26.304 13.952 49.856 20.256 70.432 19.2 20.64-1.056 38.144-4.608 52.384-10.4 16.512-8 30.848-18.656 42.816-31.776l65.504-121.6z m-153.408-397.536c0 13.92 4.928 25.632 14.624 35.104a49.792 49.792 0 0 0 36.032 14.176c14.208 0 26.336-4.736 36.032-14.176 9.824-9.472 14.624-21.184 14.624-35.104 0-13.984-4.928-25.792-14.624-35.584a48.672 48.672 0 0 0-36.032-14.88c-14.368 0-26.336 4.992-36.032 14.88a48.992 48.992 0 0 0-14.624 35.584z"  horiz-adv-x="1024" />

    
    <glyph glyph-name="you" unicode="&#59001;" d="M277.77647-127.91513891534385a52.488844 52.488844 0 0 0-37.108773 89.61809599999998L663.035982 384.0712420846561 240.66769699999998 806.439527084656A52.488844 52.488844 0 0 0 314.905723 880.6775520846561l459.497537-459.497537a52.488844 52.488844 0 0 0 0-74.238025L314.905723-112.53506791534403a52.325008 52.325008 0 0 0-37.129253-15.380070999999997"  horiz-adv-x="1024" />

    
    <glyph glyph-name="zhanghao" unicode="&#58883;" d="M649.728505625 326.826140625c84.39950718749999 50.4266334375 141.5733665625 142.520345625 141.5733665625 248.2268803125C791.3018721875001 734.0271271874999 661.328999375 864 502.236520625 864S213.28954156249995 734.0271271874999 213.28954156249995 575.0530209375c0-105.7065346875 57.173859375-197.800246875 141.5733665625-248.2268803125C197.78276 267.639950625 86.27597843750004 115.41307031250005 86.27597843750004-62.0271271874999c0-18.46609125 15.506781562499999-33.9728728125 33.9728728125-33.9728728125s33.9728728125 15.506781562499999 33.9728728125 33.9728728125c0 192 156.1331690625 349.080148125 349.080148125 349.080148125 192 0 349.080148125-156.1331690625 349.080148125-349.080148125 0-18.46609125 15.506781562499999-33.9728728125 33.9728728125-33.9728728125s33.9728728125 15.506781562499999 33.9728728125 33.9728728125c-2.0123306249999997 177.4401975-113.5191121875 329.6670778125-270.5992603125 388.8532678125zM281.23528718750003 575.0530209375c0 122.16029625 98.9593096875 221.119605 221.1196059375 221.119605s221.119605-98.9593096875 221.119605-221.119605c0-122.16029625-98.9593096875-221.119605-221.119605-221.119605s-221.119605 98.9593096875-221.1196059375 221.119605z"  horiz-adv-x="1024" />

    
    <glyph glyph-name="mima" unicode="&#58914;" d="M799.4214779259258 479.8063502222222V607.5493641481481C799.4214779259258 766.2933333333333 670.7427555555555 894.970842074074 512 894.970842074074c-158.74396918518516 0-287.4214779259259-128.67750874074073-287.4214779259259-287.42269155555556v-127.74180029629629c-52.92517451851852 0-95.80756385185185-42.884816592592585-95.80756385185185-95.8063502222222v-223.55057777777776c0-158.74396918518516 128.67750874074073-287.4214779259259 287.4202642962963-287.4214779259259h191.61391407407405c158.7451828148148 0 287.42269155555556 128.67750874074073 287.42269155555556 287.4214779259259V384c0.0012136296296296298 52.92153362962963-42.882389333333336 95.8063502222222-95.8063502222222 95.8063502222222zM288.4494222222222 607.5493641481481C288.4494222222222 731.0204017777778 388.53017600000004 831.1011555555556 512 831.1011555555556c123.46861037037036 0 223.55057777777776-100.0819674074074 223.55057777777776-223.55300503703705v-127.74180029629629h-63.874541037037034v127.64956444444445c0 88.19931970370371-71.47914429629628 159.678464-159.6760367407407 159.678464s-159.678464-71.47914429629628-159.678464-159.678464v-127.64956444444445H288.4494222222222V607.5493641481481z m351.29359170370367 0v-127.74180029629629H384.25698607407406V607.5493641481481c0 70.54707674074074 57.19715081481481 127.74301392592592 127.74301392592592 127.74301392592592 70.54464948148147 0 127.74301392592592-57.19593718518518 127.74301392592592-127.74301392592592z m191.6127004444444-319.3581416296296V160.4494222222222c0-123.25137066666666-100.29556622222223-223.54936414814816-223.54936414814816-223.54936414814816H416.1912225185185c-123.25258429629629 0-223.54815051851853 100.29920711111113-223.54815051851853 223.54936414814816V384c0 17.618261333333333 14.31233422222222 31.935450074074073 31.935450074074073 31.935450074074073H799.4214779259258c17.62311585185185 0 31.93423644444444-14.31718874074074 31.93423644444444-31.935450074074073v-95.80877748148148zM512 288.19122251851854c-35.27293155555556 0-63.87211377777777-28.599182222222225-63.87211377777777-63.86968651851851 0-19.431423999999996 10.635036444444443-56.200760888888894 21.301627259259256-85.33272651851851 8.701724444444444-23.702186666666666 19.619536592592592-42.377519407407405 42.570486518518514-42.377519407407405 24.951011555555556 0 33.867548444444445 18.48843377777778 42.60325451851851 42.06804385185185 10.790381037037037 29.19143348148148 21.266432 66.14766933333333 21.266432 85.64098844444445 0 35.270504296296295-28.59675496296296 63.870900148148145-63.86968651851851 63.870900148148145z"  horiz-adv-x="1024" />

    
    <glyph glyph-name="zhifubao1" unicode="&#58971;" d="M191.93344 203.29472c0 69.49888 50.9696 106.56768 88.03328 111.2064 111.20128 18.5344 264.11008-74.13248 264.11008-74.13248-69.504-88.0384-166.8096-134.36928-240.94208-134.36928-64.86528 4.62336-111.20128 41.69728-111.20128 97.29536z m787.69664-37.0688c-13.90592 4.63872-328.98048 101.9392-319.71328 111.21152 46.336 55.59808 78.7712 185.33888 78.7712 185.33888v27.8016h-185.33888V560.07168h227.0464v41.7024h-227.0464v101.9392h-92.672v-97.3056H256.80384v-41.7024h203.87328V495.2064H298.50624v-27.8016h333.60896c0-13.9008-23.16288-106.56768-46.336-148.27008-4.62848 9.2672-152.90368 60.2368-236.30848 64.86528-88.03328-4.6336-157.53728-32.4352-189.97248-97.3056-46.336-120.46848 27.8016-240.94208 194.60608-240.94208 27.8016 0 162.17088 13.9008 264.11008 152.9088 27.8016-13.9008 185.33376-92.672 282.64448-143.6416-92.672-111.20128-231.68-180.7104-389.21728-180.7104A508.2112 508.2112 0 0 0 1.96096 383.99488 508.2112 508.2112 0 0 0 511.6416 893.67552a508.2112 508.2112 0 0 0 509.68576-509.68064c4.6336-83.39968-13.89568-152.89856-41.69728-217.76896z"  horiz-adv-x="1024" />

    
    <glyph glyph-name="gongshangyinhang" unicode="&#58895;" d="M800.156 347.379v-227.146h-251.44v73.42h171.147V277.48H548.716V504.421h171.147v76.965H548.716v73.445h251.441v-226.967H629.01v-76.939h171.146v-3.546z m-576.505 0v-227.146h251.414v73.42H303.919V277.48h171.147V504.421H303.919v76.965h171.147v73.445H223.651v-226.967h171.147v-76.939H223.651v-3.546zM512.006 895.994C229.232 895.994 0 666.774 0 384s229.232-511.994 512.006-511.994C794.768-127.994 1024 101.226 1024 384S794.768 895.994 512.006 895.994z m0-922.434c-226.685 0-410.44 183.755-410.44 410.44s183.755 410.452 410.44 410.452S922.446 610.685 922.446 384s-183.755-410.44-410.44-410.44z"  horiz-adv-x="1024" />

    
    <glyph glyph-name="zhongguonongyeyinhang" unicode="&#58891;" d="M464.587 893.718L488.449 896h47.31l21.58-2.282v-313.944l-2.076-2.075-2.075-4.358h-2.49l-2.075-2.075-6.432-2.075h-60.174l-6.433 2.075-2.282 2.075h-4.358V577.7l-2.075 2.075-2.075 8.507V893.718h-0.207z m217.457-507.54v-152.717l-2.075-4.15-2.282-2.283-2.075-4.357h-4.15l-4.565-2.075-8.715-2.075h-90.261v-240.905l19.297 4.15 19.297 2.075 17.222 6.433 17.43 4.357 8.508 2.075 8.507 4.357 17.222 6.433 17.223 8.715 15.147 8.507 17.222 8.715 15.147 8.507 12.865 10.79 15.148 10.79 28.012 23.655 12.865 12.865 10.582 13.072 12.865 14.94 10.79 13.072 10.79 14.94 8.507 15.147 8.507 17.223 8.715 15.147 8.508 17.222 6.432 17.223 10.79 34.444 6.432 17.222 2.075 19.298 4.358 17.222 2.075 19.297 2.075 38.802-2.075 30.087-1.868 14.733v15.147l-6.432 30.087-8.508 30.087-4.357 12.865-4.357 13.072-10.79 27.805-14.94 25.937-13.072 25.73-17.223 21.58-19.297 23.654-19.297 21.373-21.58 19.504-21.372 17.223-23.862 17.222-25.73 14.94-25.73 13.072v-352.746l-2.075-4.15-2.282-2.49-2.075-4.15-4.15-2.282h-4.565l-8.715-2.075H531.401l-2.075-2.075-2.282-2.282v148.36l2.075 4.358 2.075 4.15 4.357 2.075h58.1l8.714 2.282 6.433 2.283 4.357 2.282 4.357 6.433V885.21l42.952-12.865 21.58-6.432 19.297-6.433 21.58-8.507 19.297-10.997 19.298-8.508 17.222-10.79 19.297-12.864 17.223-10.583 17.222-13.072 14.94-14.94 17.222-15.147 15.147-14.94 28.012-30.295 12.865-17.015 13.073-17.43 10.582-19.297 10.79-17.222 21.58-38.594 8.507-19.298 6.64-21.787 12.865-40.877 6.432-21.58 4.358-21.58 2.282-21.372 4.15-23.654v-70.964l-2.075-25.938-2.282-25.522-4.358-25.937-6.432-23.655-6.433-25.73-8.507-23.654-8.715-21.787-10.79-23.448-10.79-21.58-12.865-21.579-12.864-21.372-14.94-19.505-15.148-19.297-15.147-19.298-17.222-17.222-17.222-17.222-19.298-15.147-19.297-14.94-19.505-15.148-21.372-12.864-21.58-13.073-21.58-10.582-23.654-10.79-21.372-8.507-25.938-8.508-23.654-6.64-23.655-6.432-25.937-4.15-25.73-2.283-25.73-2.075-25.73-2.282-25.936 2.075-25.73 2.075-25.937 2.282-25.73 4.358-25.73 6.432-23.654 6.64-23.863 8.508-23.654 8.507-21.373 10.79-21.58 10.582-21.579 13.073-21.372 12.864-19.505 15.148-19.297 14.94-19.505 15.147-17.015 17.222-17.222 17.222-17.222 19.298-15.148 19.297-12.865 19.505-12.864 21.372-12.865 21.58-10.79 21.58-10.79 23.447-8.507 21.787-8.715 23.655-6.433 25.73-6.432 23.654-4.358 25.937-4.357 25.73L0 358.374v49.384l2.075 21.373 2.075 23.654 4.357 21.373 4.358 21.58 4.357 21.58 13.073 40.876 8.507 21.58 8.507 19.505 8.715 19.297 10.79 19.297 10.79 17.222 12.865 19.298 13.072 17.222 12.658 17.222 13.072 15.148 14.94 15.147 15.147 14.94 14.94 15.147 34.444 25.73 17.223 12.865 17.222 12.864 19.297 10.79 19.298 8.508 19.504 10.997 19.298 8.507 19.297 6.433 21.58 6.432 21.58 6.433 21.372 6.432v-327.016l2.075-4.357 2.075-2.075 6.432-2.283 6.64-2.075 6.432-2.075h58.1l4.357-2.075 4.357-4.15v-152.718l-4.357 4.15H363.536l-8.715 2.075h-4.15l-2.283 2.283-4.357 4.15-2.075 2.282v4.15l-2.075 6.432V758.43l-25.73-13.072-23.655-14.94-23.654-17.222-23.655-17.223-21.58-19.504-19.297-21.373-17.43-23.654-17.222-23.655-14.94-23.655-12.865-25.937-6.432-12.865-4.15-14.94-10.997-28.012-6.433-28.012-6.432-30.087-2.075-15.147v-15.148l-2.075-30.087V364.6l2.075-19.297 2.075-17.223 2.075-19.297 4.357-19.297 4.358-17.222 6.225-17.223 2.282-8.507 4.357-8.715 6.433-17.222 6.432-17.223 17.223-32.162 21.58-28.012 10.79-15.147 10.789-14.94 12.865-13.072 12.865-12.865 25.73-23.655 15.147-10.79 14.94-10.79 30.087-17.222 17.43-8.507 14.94-8.715 17.222-6.433 17.222-6.432 19.297-4.357 17.222-6.433 17.223-2.075 19.297-4.357V218.313h-90.261l-8.715 2.075-2.075 2.283h-4.358l-4.15 4.357-2.075 2.283v4.15l-2.075 6.432V386.179l2.075-2.283 2.075-2.075 6.433-4.357 6.432-2.075 6.433-2.075h122.63l4.358-2.075 4.15-4.358v-146.285h32.37V362.524l2.075 4.357 2.075 4.358 4.357 2.075h122.631l6.432 2.075 6.433 2.075 6.432 4.357 4.565 4.358z"  horiz-adv-x="1025" />

    
    <glyph glyph-name="zhongguoyinhang" unicode="&#58892;" d="M1020.944 406.422C1014.377 587.731 902.559 711.3 902.559 711.3 729.647 914.483 507.891 895.526 507.891 895.526 271.07 903.117 125.435 722.602 125.435 722.602 25.801 602.975 14.55 492.744 14.55 492.744c-44.184-185.149 47.91-344.71 47.91-344.71 68.594-125.348 140.951-183.357 258.389-238.332 117.476-55.179 296.058-47.589 406.942 8.435 110.859 56.102 178.518 117.822 240.546 234.594 61.963 116.888 52.607 253.691 52.607 253.691M459.956-14.382s-186.07 10.419-288.493 190.934c0 0-88.37 127.293-51.724 285.908 36.684 158.601 122.186 222.178 139.133 238.318 16.921 16.115 126.398 82.008 201.084 80.805v-189.027H381.02s-107.134-6.656-110.897-126.32v-174.755s2.829-107.378 113.713-119.691h76.107v-186.172m-63.922 297.274s-18.764-4.736-21.58 17.075V467.144s2.803 18.035 16.896 18.035h232.098s19.775 3.866 21.618-18.035v-162.403s4.723-25.651-14.092-21.862h-234.94M848.07 160.411c-75.198-115.863-218.044-169.097-284.743-174.793V171.79h88.318s94.04 18.969 99.621 117.783V488.059s-15.104 99.672-119.307 104.497h-68.632V781.532s117.463-9.459 212.361-97.841c94.91-88.306 119.319-176.624 129.687-224.137 10.316-47.5 17.855-183.267-57.305-299.143z"  horiz-adv-x="1024" />

    
    <glyph glyph-name="shourulaiyuan" unicode="&#58963;" d="M308.932245-123.044204c-26.685936 10.162808-52.104376 20.337036-78.790312 31.767341-36.848744 13.976716-50.825461 49.557964-36.848744 87.685623 5.081404 13.976716 8.895312 27.953432 15.244212 41.930149 3.813908 8.895312 2.546412 15.244212-5.081404 21.604532-35.581248 30.499844-66.081092 66.081092-87.685624 108.01124-20.337036 38.12766-31.76734 78.790312-30.499844 121.987957 1.267496 34.256657 3.813908 69.895 5.081405 102.929836-16.523128 10.162808-34.256657 21.604532-49.557965 34.256658-50.825461 43.209064-49.557964 133.42968 2.546412 172.824836a64.425353 64.425353 0 0 0 20.337035 11.418885c10.162808 3.813908 20.337036-2.546412 25.41844-11.418885 3.813908-10.162808 2.546412-20.337036-6.3489-27.953433-1.267496-1.267496-3.813908-3.813908-5.081404-3.813908-34.256657-15.244212-41.930149-77.511397-5.081405-108.01124 10.162808-8.895312 21.604532-15.244212 33.034837-22.837772 3.813908 7.627816 6.3489 12.70922 7.627816 19.058121 30.499844 73.697489 83.871716 121.987957 148.673892 158.84812 90.209198 50.825461 186.801552 64.813596 287.184977 54.639368 20.337036-2.546412 39.395156-6.3489 59.720773-8.895312 2.546412 0 7.627816 1.267496 8.895312 5.081404 34.256657 63.53468 87.685624 101.628083 153.755297 120.720461 10.162808 2.546412 20.337036 2.546412 26.685936-6.348901 6.3489-7.627816 5.081404-17.790624 2.546411-27.953432-8.895312-30.477006-19.05812-62.255765-26.720192-94.034525-3.813908-12.70922-3.813908-25.41844-5.081405-38.127659-1.267496-7.627816 1.267496-11.418886 7.627816-13.976716q70.534457-32.395379 110.58049-102.918418c12.70922-22.837772 22.837772-48.290468 27.953432-74.976404 3.813908-16.523128 3.813908-16.523128 19.058121-16.523127h25.418439c31.76734-1.267496 53.371872-20.337036 59.720773-54.639369 0-1.267496 1.267496-3.813908 1.267496-5.081404v-115.627637c0-2.546412-1.267496-3.813908-1.267496-6.348901-5.081404-31.76734-24.139525-50.825461-54.639369-53.371872a69.107097 69.107097 0 0 0-22.837771 0c-17.790624 2.546412-27.953432-5.081404-36.848744-22.837771-24.139525-52.104376-60.999688-92.767028-109.278737-123.266872-3.813908-2.546412-6.3489-5.081404-10.162809-7.627816 3.813908-10.162808 6.3489-19.05812 10.162809-29.232347 15.244212-41.930149 1.267496-74.976404-39.395156-90.209198-24.139525-10.162808-49.557964-20.337036-73.697489-30.499844h-24.1852c-29.232348 8.895312-43.209064 31.76734-50.82546 60.999688-1.267496 5.081404-3.813908 10.162808-5.081405 15.244212-1.267496 8.895312-6.3489 12.70922-16.523127 11.418886-60.999688-6.3489-123.266872-10.162808-184.255141 5.081404-2.546412 1.267496-7.627816-2.546412-8.895312-6.3489-3.813908-8.895312-7.627816-19.05812-11.418886-29.232348-7.627816-27.953432-22.837772-48.290468-50.82546-57.18578h-21.62737v3.813908zM746.07003 729.626834c-8.895312-5.081404-13.976716-7.627816-20.337036-11.418885-34.256657-21.604532-58.453276-52.104376-76.2439-90.209198-7.627816-15.244212-15.244212-19.05812-31.76734-16.523128-27.953432 5.081404-54.639368 10.162808-82.592801 12.70922-101.628083 8.895312-196.964361-10.162808-283.371069-69.895-27.953432-19.05812-53.371872-40.662652-72.429992-69.894999-31.76734-48.290468-45.744056-102.929836-49.557965-161.383113-2.546412-52.104376 6.3489-101.628083 33.034837-146.161738 20.337036-33.034837 45.744056-59.720773 73.697489-83.871716 21.604532-19.05812 26.685936-38.12766 16.523127-66.081092-5.081404-15.244212-11.418886-31.76734-16.523127-47.022971-6.3489-16.523128-2.546412-22.837772 11.418885-29.232348 20.337036-7.627816 40.662652-16.523128 59.720773-24.139524 15.244212-6.3489 22.837772-2.546412 27.953432 12.70922 6.3489 17.790624 12.70922 34.256657 20.337036 52.104375 7.627816 19.05812 22.837772 26.685936 43.209064 24.139525s40.662652-8.895312 60.999687-8.895312q60.999688 0 121.987957 3.813908c33.034837 2.546412 48.290468-5.081404 59.720772-39.395156 3.813908-11.418886 7.627816-24.139525 12.70922-36.848745 3.813908-10.162808 11.418886-13.976716 21.604532-10.162808 24.139525 8.895312 47.022972 17.790624 69.895 27.953432 8.895312 3.813908 12.70922 11.418886 8.895312 21.604532-2.546412 8.895312-5.081404 17.790624-8.895312 25.41844-11.418886 34.256657-5.081404 53.371872 24.139525 72.429992 11.418886 7.627816 24.139525 15.244212 34.256657 24.139525 29.232348 25.41844 50.825461 57.18578 67.371426 92.767028 11.418886 24.139525 29.232348 35.581248 55.95254 35.581248h30.499844c12.70922 0 17.790624 5.081404 17.790624 19.05812v104.220171c0 15.244212-5.081404 19.05812-19.05812 19.05812-12.70922 0-25.41844 0-38.12766 1.267496-24.139525 1.267496-39.395156 15.244212-44.47656 41.930149-15.244212 78.790312-58.453276 132.162184-129.615772 161.383112-15.244212 6.3489-20.337036 12.70922-20.337036 31.767341 0 31.76734 3.813908 63.53468 12.70922 94.034524 2.546412 11.418886 5.081404 20.337036 8.895312 33.034836zM380.037647 893.556358c20.337036-6.3489 43.209064-10.162808 62.267184-20.337035 53.371872-27.953432 82.592801-74.976404 90.209197-137.243588 1.267496-5.081404 0-10.162808 0-16.523128-13.976716 0-27.953432-1.267496-41.930148-2.546411-2.546412 52.104376-24.139525 92.767028-69.895 116.906552-30.499844 16.523128-60.999688 16.523128-92.767028 5.081404-60.999688-22.837772-101.628083-97.848432-68.616085-176.638744-12.70922-6.3489-25.41844-11.418886-39.395155-17.790624-11.418886 24.139525-16.523128 48.290468-16.523128 74.976404 0 88.95312 62.267184 161.383113 144.859985 172.824836 2.546412 0 5.081404 1.267496 8.895312 2.546412 7.627816-1.267496 15.244212-1.267496 22.837771-1.267496zM723.186583 370.011865c0 24.139525 19.05812 44.47656 41.930148 44.47656s41.987243-20.337036 41.987243-44.47656-19.05812-44.47656-41.930148-44.47656c-22.917704-1.267496-41.987243 20.337036-41.987243 44.47656z"  horiz-adv-x="1024" />

    
    <glyph glyph-name="weixin" unicode="&#58936;" d="M907.7191111111111 893.952H116.28088888888885c-62.577777777777776 0-113.77777777777779-51.2-113.77777777777779-113.77777777777779v-792.2346666666666c0-62.577777777777776 51.2-113.77777777777779 113.77777777777779-113.77777777777779h791.4382222222223c62.577777777777776 0 113.77777777777779 51.2 113.77777777777779 113.77777777777779V780.1742222222222c0 62.577777777777776-51.2 113.77777777777779-113.77777777777779 113.77777777777779zM407.55199999999996 244.62222222222226c-31.63022222222222 0-57.00266666666666 6.485333333333333-88.74666666666667 12.74311111111111l-88.5191111111111-44.373333333333335 25.372444444444447 76.11733333333333c-63.37422222222222 44.25955555555555-101.37599999999999 101.37599999999999-101.37599999999999 170.8942222222222 0 120.49066666666667 114.00533333333333 215.26755555555556 253.15555555555557 215.26755555555556 124.4728888888889 0 233.5857777777778-75.776 255.4311111111111-177.83466666666666-8.078222222222221 0.9102222222222223-16.156444444444443 1.479111111111111-24.348444444444443 1.479111111111111C518.2577777777777 498.91555555555556 423.25333333333333 409.14488888888894 423.25333333333333 298.5528888888889c0-18.432 2.844444444444444-36.06755555555556 7.850666666666667-53.02044444444445-7.736888888888888-0.5688888888888889-15.587555555555554-0.9102222222222223-23.552-0.9102222222222223z m373.41866666666664-88.63288888888889l19.000888888888888-63.26044444444444-69.40444444444444 38.001777777777775c-25.372444444444447-6.371555555555555-50.744888888888894-12.74311111111111-76.00355555555555-12.74311111111111-120.49066666666667 0-215.38133333333334 82.37511111111112-215.38133333333334 183.7511111111111 0 101.26222222222222 94.89066666666668 183.7511111111111 215.38133333333334 183.7511111111111 113.77777777777779 0 215.04-82.48888888888888 215.04-183.7511111111111 0-57.11644444444445-37.77422222222222-107.63377777777778-88.63288888888889-145.7493333333333zM325.29066666666665 567.6373333333333c-19.000888888888888 0-38.11555555555556-12.515555555555554-38.11555555555556-31.63022222222222 0-19.000888888888888 19.11466666666667-31.63022222222222 38.11555555555556-31.63022222222222s31.63022222222222 12.74311111111111 31.63022222222222 31.63022222222222c0 19.11466666666667-12.629333333333333 31.63022222222222-31.63022222222222 31.63022222222222zM584.8177777777778 384c-12.629333333333333 0-25.372444444444447-12.74311111111111-25.372444444444447-25.372444444444447 0-12.74311111111111 12.74311111111111-25.372444444444447 25.372444444444447-25.372444444444447 19.11466666666667 0 31.63022222222222 12.515555555555554 31.63022222222222 25.372444444444447 0 12.74311111111111-12.515555555555554 25.372444444444447-31.63022222222222 25.372444444444447zM502.4426666666667 504.3768888888889c19.11466666666667 0 31.63022222222222 12.74311111111111 31.63022222222222 31.63022222222222 0 19.000888888888888-12.629333333333333 31.63022222222222-31.63022222222222 31.63022222222222-19.000888888888888 0-38.001777777777775-12.515555555555554-38.001777777777775-31.63022222222222 0-18.88711111111111 19.000888888888888-31.63022222222222 38.001777777777775-31.63022222222222zM724.0817777777777 384c-12.515555555555554 0-25.14488888888889-12.74311111111111-25.14488888888889-25.372444444444447 0-12.74311111111111 12.629333333333333-25.372444444444447 25.14488888888889-25.372444444444447 19.000888888888888 0 31.63022222222222 12.515555555555554 31.63022222222222 25.372444444444447 0 12.74311111111111-12.629333333333333 25.372444444444447-31.63022222222222 25.372444444444447z"  horiz-adv-x="1024" />

    
    <glyph glyph-name="weixuanzhong" unicode="&#58882;" d="M512 893.7244444444444C230.51377777777782 893.7244444444444 2.27555555555557 665.4862222222222 2.27555555555557 384s228.23822222222222-509.72444444444443 509.72444444444443-509.72444444444443 509.72444444444443 228.23822222222222 509.72444444444443 509.72444444444443S793.4862222222222 893.7244444444444 512 893.7244444444444z m0-946.6311111111112c-241.32266666666663 0-436.9066666666667 195.584-436.9066666666667 436.9066666666667s195.584 436.9066666666667 436.9066666666667 436.9066666666667 436.9066666666667-195.584 436.9066666666667-436.9066666666667-195.584-436.9066666666667-436.9066666666667-436.9066666666667z"  horiz-adv-x="1024" />

    
    <glyph glyph-name="weixinzhifu" unicode="&#58908;" d="M414.150498 256.5066816666666a37.698315 37.698315 0 0 0-50.251778 15.322051l-2.806514 5.613029-103.347995 226.720849a15.890939 15.890939 0 0 0-2.123849 7.661026c0 10.46754 8.381617 18.849157 18.887083 18.849157a19.342194 19.342194 0 0 0 11.150206-3.48918l122.235078-86.508908a55.751029 55.751029 0 0 1 50.289703-5.575103L1033.707506 690.4165576666667C930.321585 811.7793406666667 760.641243 890.6651496666667 568.546713 890.6651496666667 254.861845 891.3478156666666 0 679.2663516666667 0 417.6537026666667c0-142.335789 76.837812-271.397524 196.266376-357.906433 9.784874-6.97836 16.080569-18.811231 16.080569-30.719955 0-4.171846-0.720592-8.343691-2.123849-12.515537l-25.827517-95.573191c-1.403257-4.171846-2.806514-9.102209-2.806515-13.95672 0-10.46754 8.381617-18.849157 18.849158-18.849158 4.171846 0 7.698952 1.403257 11.188131 3.48918l124.321001 71.869523c9.102209 5.575103 19.569749 8.343691 30.037289 9.064283 5.575103 0 11.188132-0.720592 16.763234-2.806514 60.757243-17.4459 122.917744-25.789591 185.798836-25.789591C882.838396-56.0404103333334 1137.776092 156.0410526666666 1137.776092 417.6537026666667c0 78.127292-23.058929 154.16866-64.967015 219.742489l-655.131474-378.120921-3.48918-2.768589z"  horiz-adv-x="1137" />

    
    <glyph glyph-name="weixin1" unicode="&#58995;" d="M513.344 864.896c-266.133333 0-481.856-215.722667-481.856-481.834667 0-266.133333 215.722667-481.856 481.856-481.856 266.112 0 481.856 215.722667 481.856 481.856 0 266.112-215.744 481.834667-481.856 481.834667z m-87.381333-595.349333c-25.984 0-46.890667 5.312-72.917334 10.410666l-72.810666-36.458666 20.821333 62.634666c-52.138667 36.458667-83.328 83.434667-83.328 140.608 0 99.114667 93.76 177.109333 208.234667 177.109334 102.4 0 192.085333-62.336 210.112-146.24a180.202667 180.202667 0 0 1-20.096 1.258666c-98.88 0-176.981333-73.834667-177.024-164.821333 0-15.189333 2.389333-29.781333 6.442666-43.690667-6.4-0.512-12.885333-0.810667-19.434666-0.810666z m307.114666-72.981334l15.658667-52.053333-57.088 31.338667c-20.842667-5.205333-41.749333-10.410667-62.506667-10.410667-99.072 0-177.088 67.626667-177.088 151.104 0 83.221333 77.973333 151.104 177.088 151.104 93.589333 0 176.917333-67.84 176.917334-151.104 0.021333-46.997333-31.146667-88.576-72.981334-119.978667zM504.021333 483.242667c15.744 0 26.069333 10.432 26.069334 26.026666 0 15.658667-10.325333 26.005333-26.069334 26.005334-15.594667 0-31.210667-10.304-31.210666-26.005334 0-15.573333 15.68-26.026667 31.210666-26.026666z m-145.706666 52.032c-15.637333 0-31.381333-10.325333-31.381334-26.005334 0-15.594667 15.744-26.026667 31.381334-26.026666 15.616 0 25.984 10.432 25.984 26.026666 0 15.701333-10.368 26.005333-25.984 26.005334zM571.733333 384.213333c-10.304 0-20.821333-10.432-20.821333-20.8 0-10.517333 10.496-20.842667 20.821333-20.842666 15.808 0 26.069333 10.304 26.069334 20.842666-0.021333 10.368-10.261333 20.8-26.069334 20.8z m114.56 0c-10.304 0-20.714667-10.432-20.714666-20.8 0-10.517333 10.453333-20.842667 20.714666-20.842666 15.658667 0 26.048 10.304 26.048 20.842666 0 10.368-10.389333 20.8-26.048 20.8z"  horiz-adv-x="1024" />

    
    <glyph glyph-name="chuyidong" unicode="&#58886;" d="M512 488.22866729515465L130.00021464165047 870.3144485597638a73.69964238135337 73.69964238135337 0 1 1-104.22866511163076-104.2286672951547L407.68533679858587 384l-382.0857834481332-381.99978535834975a73.69964238135337 73.69964238135337 0 1 1 104.2286672951547-104.22866511163076L512 279.6853367985859l381.99978535834975-382.0857834481332a73.69964238135337 73.69964238135337 0 1 1 104.22866511163076 104.2286672951547L616.3146632014141 384l382.0857834481332 381.99978535834975a73.69964238135337 73.69964238135337 0 1 1-104.2286672951547 104.22866511163076L512 488.31466320141413z"  horiz-adv-x="1024" />

    
    <glyph glyph-name="guanbi" unicode="&#59352;" d="M1194.666666666667-128l-682.666667-1.7053025658242404e-13c-284.444444-8.526512829121202e-14-512 227.55555599999983-512.0000000000001 511.9999999999998s227.55555599999983 512 511.9999999999998 512.0000000000001L1194.6666666666667 895.9999999999999c284.444444 8.526512829121202e-14 512-227.55555599999983 512.0000000000001-511.9999999999998s-227.55555599999983-512-511.9999999999998-512.0000000000001zM511.9999996666665 383.9999999999999m398.222223 1.4210854715202004e-13a398.222222 398.222222 0 1 1-796.4444449999999-2.2737367544323206e-13 398.222222 398.222222 0 1 1 796.4444449999999 2.2737367544323206e-13Z"  horiz-adv-x="1706" />

    
    <glyph glyph-name="guan" unicode="&#59353;" d="M511.9999999999997 896.0000000000003l682.666667 0c284.444444 0 512-227.55555600000002 511.9999999999999-512s-227.55555600000002-512-512-511.9999999999999L511.9999999999997-127.99999999999966c-284.444444 0-512 227.55555600000002-511.9999999999999 512s227.55555600000002 512 512 511.9999999999999zM1194.6666670000004 384.00000000000006m-398.222223-2.842170943040401e-14a398.222222 398.222222 0 1 1 796.4444449999999 1.1368683772161603e-13 398.222222 398.222222 0 1 1-796.4444449999999-1.1368683772161603e-13Z"  horiz-adv-x="1706" />

    
    <glyph glyph-name="fanhui" unicode="&#58887;" d="M667.4 413H167.8l266.6 266.6c11.9 11.9 11.9 31.3 0 43.1-11.9 11.9-31.3 11.9-43.1 0L76.1 407.6c-5.5-3.8-9.7-9.4-11.8-15.9-0.7-1.9-1.2-3.9-1.4-5.9-1.3-9.2 1.5-18.9 8.6-26 0.5-0.5 1.1-1.1 1.7-1.6l318.1-318.1c11.9-11.9 31.3-11.9 43.1 0 11.9 11.9 11.9 31.3 0 43.1L165.6 352h501.8c16.8 0 30.5 13.7 30.5 30.5S684.2 413 667.4 413zM927.1 413H796.7c-16.8 0-30.5-13.7-30.5-30.5s13.7-30.5 30.5-30.5h130.4c16.8 0 30.5 13.7 30.5 30.5S943.9 413 927.1 413z"  horiz-adv-x="1024" />

    
    <glyph glyph-name="you-copy" unicode="&#59002;" d="M746.2235299999998 895.9151389153438a52.488844 52.488844 0 0 0 37.10877300000003-89.61809599999995L360.9640179999999 383.9287579153439 783.3323030000001-38.43952708465599A52.488844 52.488844 0 0 0 709.0942770000001-112.6775520846561l-459.49753700000025 459.49753699999997a52.488844 52.488844 0 0 0-2.1316282072803006e-14 74.238025L709.0942769999998 880.5350679153441a52.32500799999999 52.32500799999999 0 0 0 37.12925299999999 15.380071000000003"  horiz-adv-x="1024" />

    
    <glyph glyph-name="xiala" unicode="&#59354;" d="M533.5381333333333-5.563733333333403M44.817066666666506 612.3178666666666c13.346133333333336 13.346133333333336 33.9968 14.131199999999998 46.6944 2.1845333333333308l401.6128-401.57866666666666c16.34986666666667-17.237333333333332 20.616533333333333-17.16906666666667 37.78560000000001 0L932.4544 614.5024C945.152 626.4832 965.8026666666667 625.664 979.1488 612.3178666666666c13.58506666666667-13.58506666666667 14.336-34.78186666666667 1.7408000000000001-47.41120000000001l-446.05440000000004-446.05440000000004c-5.495466666666668-5.495466666666668-12.629333333333335-7.953066666666668-20.036266666666666-8.396799999999999l-5.597866666666667 0c-7.406933333333334 0.47786666666666644-14.5408 2.9354666666666676-20.036266666666666 8.396799999999999L43.076266666666584 564.9066666666668C30.515199999999993 577.5360000000001 31.266133333333073 598.7669333333333 44.817066666666506 612.3178666666666z"  horiz-adv-x="1024" />

    
    <glyph glyph-name="shang" unicode="&#59355;" d="M490.46186666666665 773.5637333333334M979.1829333333335 155.68213333333324c-13.346133333333341-13.346133333333341-33.9968-14.131199999999998-46.6944-2.1845333333333308l-401.6128 401.57866666666666c-16.349866666666678 17.23733333333334-20.616533333333336 17.169066666666673-37.785600000000024 0L91.54560000000004 153.49760000000003C78.84799999999973 141.5168 58.19733333333323 142.336 44.85119999999978 155.68213333333324c-13.585066666666675 13.585066666666675-14.336000000000004 34.78186666666667-1.7408000000000001 47.41120000000001l446.0544000000002 446.0544000000002c5.49546666666667 5.49546666666667 12.629333333333339 7.953066666666671 20.036266666666666 8.396799999999999l5.597866666666669 0c7.4069333333333365-0.4778666666666669 14.540800000000006-2.9354666666666684 20.036266666666666-8.396799999999999L980.9237333333335 203.09333333333302C993.4848000000002 190.46399999999994 992.7338666666669 169.23306666666656 979.1829333333335 155.68213333333324z"  horiz-adv-x="1024" />

    
    <glyph glyph-name="xuanzhong" unicode="&#59356;" d="M512.704625 896C229.516353 896 0 666.804201 0 384.011441 0 101.21724900000004 229.516353-127.97282800000005 512.704625-127.97282800000005 795.92727-127.97282800000005 1025.403525 101.21724900000004 1025.403525 384.011441 1025.403525 666.804201 795.894333 896 512.704625 896L512.704625 896ZM417.15755 135.341051L188.045068 364.13354000000004 239.888112 415.904179 417.15755 238.88232400000004 785.549783 606.7643350000001 837.392829 554.993698 417.15755 135.341051 417.15755 135.341051Z"  horiz-adv-x="1026" />

    


  </font>
</defs>
</svg>
